<?xml version="1.0" encoding="utf-8"?>
<!-- Generator: Adobe Illustrator 24.0.0, SVG Export Plug-In . SVG Version: 6.00 Build 0)  -->
<svg version="1.1" id="Layer_1" xmlns="http://www.w3.org/2000/svg" xmlns:xlink="http://www.w3.org/1999/xlink" x="0px" y="0px"
	 viewBox="0 0 173.06 173.06" style="enable-background:new 0 0 173.06 173.06;" xml:space="preserve">
<style type="text/css">
	.st0{fill:#B11938;}
	.st1{fill:#FFFFFF;}
</style>
<g>
	<circle class="st0" cx="86.53" cy="86.53" r="86.53"/>
	<g>
		<path class="st1" d="M50.14,46.43c0.2,2.27,0.46,3.66,1.05,5.42c1.15-1.78,1.88-3.3,2.17-4.52c3.03,1.08,3.03,1.08,3.03,1.34
			s-0.27,0.34-1.1,0.34c-1.15,2.1-1.91,3.22-3.18,4.71c1.03,1.51,1.83,2.37,3.35,3.49c0.71-1.32,0.95-1.78,2.1-4.32l0.27,0.07
			l-0.71,3.96c-0.1,0.71-0.1,0.71-0.1,0.83c0,0.2,0,0.2,0.39,0.68c0.22,0.27,0.34,0.59,0.34,0.88c0,0.59-0.46,1.1-1,1.1
			c-1.61,0-4.4-2.35-6.13-5.15c-2.17,2.03-3.86,3.08-6.84,4.23l-0.17-0.24c2.66-1.73,4.42-3.3,6.18-5.47
			c-0.95-2.03-1.42-3.93-1.76-7.33h-4.91v3.91c1.47-0.27,2.32-0.46,4.23-0.93l0.05,0.32c-1.83,0.88-2.69,1.25-4.27,1.88v3.13
			c0,1.1,0,1.93,0.02,3.52c0,0.76-0.12,1.15-0.46,1.49c-0.42,0.44-1.05,0.64-2.64,0.85c-0.12-0.88-0.27-1.2-0.56-1.47
			c-0.24-0.22-0.81-0.46-1.42-0.59c-0.2-0.05-0.54-0.12-1.22-0.22l0.02-0.37c1.34,0.07,1.56,0.07,3.59,0.12
			c0.39,0,0.42-0.02,0.42-0.42v-5.28c-1.56,0.54-2.69,0.9-3.35,1.12c-0.1,0.76-0.22,1-0.46,1c-0.15,0-0.29-0.22-0.39-0.64
			c-0.02-0.1-0.12-0.49-0.27-1.08c-0.1-0.34-0.24-0.85-0.39-1.54c0.12,0,0.22,0,0.22,0c0.88,0,0.88,0,4.64-0.56v-4.25h-2.86
			c-1,0.02-1.39,0.05-2.05,0.17l-0.15-0.88c0.78,0.15,1.2,0.17,2.2,0.17h2.86v-3.64c-1.66,0.39-2.64,0.54-4.79,0.76l-0.1-0.27
			c2.3-0.71,3.74-1.27,5.59-2.25c1.47-0.73,2.15-1.2,3-1.93c2.2,1.47,2.49,1.69,2.49,1.88c0,0.15-0.15,0.27-0.34,0.27
			c-0.1,0-0.39-0.05-0.88-0.12c-1.27,0.51-1.78,0.73-2.74,1.03v4.25l4.86-0.02c-0.15-1.49-0.2-2.79-0.22-4.25
			c0-1.49-0.02-1.93-0.15-2.74c3,0.32,3.27,0.39,3.27,0.68c0,0.22-0.15,0.32-0.9,0.54c-0.02,1.91-0.02,1.91-0.02,2.15
			c0,1.12,0.05,2.35,0.12,3.62l3.69-0.02c0.71-0.83,0.93-1.08,1.66-1.86c1.12,0.85,1.44,1.12,2.49,2c0.05,0.07,0.1,0.17,0.1,0.2
			c0,0.07-0.12,0.2-0.2,0.2L50.14,46.43z M51.36,40.01c1.17,0.42,2.1,0.85,2.83,1.34c0.71,0.49,0.93,0.81,0.93,1.37
			c0,0.88-0.61,1.64-1.32,1.64c-0.15,0-0.29-0.07-0.39-0.17c-0.1-0.12-0.1-0.12-0.27-0.68c-0.29-0.98-1-2.2-1.93-3.3L51.36,40.01z"
			/>
		<path class="st1" d="M67.71,55.11c1.78,1,3.08,1.54,3.62,1.54c0.59,0,1-0.51,1.66-2.1c0.78-1.98,1.37-4.67,1.37-6.5
			c0-1.49-0.44-2.05-1.54-2.05c-0.61,0-1.25,0.12-2.3,0.44c-5.15,12.53-5.15,12.53-6.01,12.53c-0.59,0-0.98-0.83-0.98-2.08
			c0-0.76,0.12-1.05,0.66-1.61c1.08-1.15,2.35-3.54,4.45-8.28c-1.49,0.59-2.17,0.88-2.83,1.27c-0.37,0.22-0.51,0.27-0.73,0.27
			c-0.85,0-2.08-1.73-2.08-2.98c0-0.15,0.05-0.29,0.15-0.59c0.51,1.05,1.07,1.47,2.03,1.47c0.61,0,2.03-0.29,3.91-0.78
			c0.54-1.44,0.9-3.05,0.9-3.96s-0.54-1.42-1.93-1.91c0.37-0.22,0.51-0.27,0.98-0.27c0.78,0,2.27,0.42,3.03,0.85
			c0.51,0.27,0.78,0.64,0.78,1c0,0.24-0.07,0.39-0.32,0.81c-0.46,0.68-0.73,1.22-1.54,3.13c0.93-0.17,1.32-0.22,1.91-0.22
			c2.22,0,3.32,1.32,3.32,4.06c0,2.59-0.76,5.72-1.86,7.77c-0.81,1.49-2.13,2.39-3.47,2.39c-0.54,0-0.81-0.24-0.85-0.76
			c-0.07-0.64-0.1-0.73-0.39-1.1c-0.46-0.56-1-1.07-2.13-2.03L67.71,55.11z M78.26,45.04c1.95,0.46,3.4,1.27,4.64,2.61
			c1.12,1.2,1.76,2.61,1.76,3.91c0,1.25-0.54,2-1.47,2c-0.32,0-0.44-0.05-0.98-0.42c-0.42-0.29-0.81-0.37-2.1-0.37
			c-0.46,0-0.88,0-1.66,0.05l-0.07-0.27c2.03-0.59,3.13-0.93,3.59-1.15c0.12-0.05,0.15-0.1,0.15-0.29c0-0.49-0.29-1.56-0.66-2.35
			c-0.76-1.64-1.76-2.69-3.35-3.44L78.26,45.04z M79.31,41.33c0.88,0.24,1.83,0.64,2.59,1.07c1.05,0.61,1.39,1.03,1.39,1.71
			s-0.34,1.22-0.76,1.22c-0.27,0-0.44-0.17-0.73-0.73c-0.59-1.12-1.64-2.32-2.64-3.05L79.31,41.33z M81.34,39.62
			c0.83,0.12,1.66,0.39,2.49,0.78c1.1,0.54,1.54,1,1.54,1.66c0,0.63-0.29,1.2-0.63,1.2c-0.22,0-0.39-0.15-0.68-0.61
			c-0.73-1.15-1.71-2.1-2.86-2.81L81.34,39.62z"/>
		<path class="st1" d="M101.34,45.04c-1.2,1.03-1.66,1.39-2.52,1.95c1.66,1.34,2.2,1.95,2.96,3.3c0.88,1.61,1.27,3.32,1.27,5.52
			c0,2.1-0.42,3.32-1.37,4.01c-0.64,0.46-1.32,0.66-2.74,0.85c-0.1-0.98-0.22-1.32-0.59-1.56c-0.39-0.24-1.37-0.59-2.78-0.95
			l0.05-0.34c1.22,0.17,3.22,0.29,4.18,0.29c0.44,0,0.68-0.05,0.81-0.2c0.24-0.24,0.42-1.54,0.42-3.08c0-0.46,0-0.78-0.05-1.37
			c-1.51,1.15-2.22,1.61-3.62,2.39c-2.64,1.49-4.67,2.3-7.67,3.03l-0.12-0.27c3.05-1.37,4.96-2.49,7.6-4.47
			c1.42-1.07,2.1-1.69,3.44-3.03c-0.17-0.61-0.24-0.85-0.39-1.27c-1.49,1.05-2.22,1.54-3.37,2.17c-2.3,1.25-4.06,1.93-7.04,2.66
			l-0.15-0.27c2.69-1.22,4.28-2.15,6.47-3.76c1.2-0.88,1.69-1.27,3.03-2.52c-0.29-0.37-0.44-0.51-0.76-0.88
			c-1.27,0.81-2.54,1.44-4.06,2.05c-1.49,0.59-2.35,0.85-4.1,1.2l-0.15-0.27c3.79-1.66,5.69-2.88,8.13-5.2H95.5
			c-0.64,0-1.08,0.02-2,0.15l-0.29-0.93c0.76,0.15,1.69,0.24,2.49,0.24h9.33c0.61-0.71,0.81-0.9,1.42-1.59
			c0.56,0.37,0.76,0.49,1.2,0.78c0.34-0.71,0.42-0.85,0.78-2H93.11c-0.05,1.03-0.2,1.76-0.49,2.44c-0.42,0.93-1.12,1.59-1.66,1.59
			c-0.59,0-1.22-0.88-1.22-1.69c0-0.34,0.17-0.56,0.66-0.88c1.29-0.83,1.91-1.86,2.13-3.64h0.29c0.2,0.76,0.22,1,0.27,1.64h6.4
			v-1.39c0-0.59-0.02-0.88-0.1-1.54c0.78,0.05,2.17,0.2,2.66,0.27c0.64,0.1,0.88,0.2,0.88,0.37c0,0.2-0.24,0.32-1.05,0.56v1.73h6.35
			c0.51-0.59,0.68-0.76,1.25-1.34c1.12,0.78,1.47,1.03,2.52,1.88c0.17,0.15,0.24,0.24,0.24,0.34c0,0.07-0.05,0.15-0.12,0.2
			c-0.2,0.1-0.44,0.15-0.76,0.17c-0.17,0-0.42,0.02-0.73,0.05c-1.27,0.76-2.08,1.22-2.61,1.51c0.37,0.27,0.56,0.39,1.1,0.78
			c0.05,0.07,0.1,0.12,0.1,0.17c0,0.07-0.07,0.12-0.2,0.12h-6.21c0.44,1.98,0.9,3.18,1.86,4.98c1.66-1.66,2.49-2.74,3.05-3.93
			c2.39,1.15,3.03,1.54,3.03,1.78c0,0.22-0.27,0.34-0.73,0.34c-0.12,0-0.44,0-0.68,0c-1.95,1.17-2.52,1.49-4.37,2.3
			c1.69,2.79,4.3,4.89,7.33,5.91l-0.07,0.27c-0.59,0.05-1,0.2-1.47,0.56c-0.39,0.32-0.64,0.66-1.1,1.51
			c-1.71-1.27-2.66-2.27-3.81-3.98c-1.78-2.66-2.93-5.77-3.54-9.75H101.34z"/>
		<path class="st1" d="M125.9,58.53c2.64-0.81,4.42-1.88,5.86-3.44c1.56-1.73,2.35-3.84,2.35-6.25c0-4.1-2.61-6.62-6.89-6.62
			c-0.24,0-0.46,0.02-0.88,0.05c0.73,0.95,0.98,1.56,0.98,2.42c0,1.93-1.27,5.4-3.08,8.35c-1.59,2.59-2.91,3.88-4.01,3.88
			c-0.44,0-0.85-0.2-1.12-0.49c-0.22-0.27-0.44-0.78-0.66-1.54c-0.24-0.85-0.39-1.12-1-1.98c-0.56-0.78-0.93-1.86-0.93-2.79
			c0-1.56,0.78-3.4,2.1-4.91c2.05-2.35,5.42-3.79,8.92-3.79c5.3,0,9.09,3.37,9.09,8.11c0,3.44-1.86,6.23-5.25,7.87
			c-1.47,0.71-2.93,1.1-5.35,1.47L125.9,58.53z M121.23,44.7c-1.81,1.69-2.81,3.79-2.81,5.91c0,1.71,0.9,3.59,1.73,3.59
			c1.56,0,5.99-7.79,5.99-10.53c0-0.27-0.05-0.56-0.12-0.81c-0.05-0.17-0.17-0.51-0.2-0.51C123.97,42.72,122.62,43.4,121.23,44.7z"
			/>
		<path class="st1" d="M47.38,81.87c0.61,2.52,1.47,4.37,2.86,6.23c1.32,1.76,3.1,3.27,5.11,4.35c1.03,0.54,1.64,0.76,3.1,1.15
			l-0.05,0.32c-1.44,0.56-1.93,1.1-2.44,2.64c-2-1.25-2.88-1.98-4.13-3.4c-2.52-2.91-3.96-6.21-4.71-10.7
			c-0.42,3.71-1.56,6.55-3.57,8.89c-1.29,1.51-3.18,2.98-5.2,4.06c-0.93,0.49-1.64,0.78-3.22,1.32l-0.17-0.32
			c2.03-1.12,3.03-1.83,4.42-3.18c3.23-3.08,4.91-6.72,5.3-11.36h-6.69c-1,0-1.54,0.02-2.22,0.15l-0.17-0.9
			c0.68,0.15,1.42,0.22,2.49,0.22h6.64c0.07-1.27,0.15-3.25,0.15-4.54c0-0.73-0.02-1.1-0.12-1.95c1.25,0.07,1.86,0.12,3.13,0.29
			c0.39,0.07,0.61,0.17,0.61,0.37c0,0.27-0.27,0.44-1.03,0.71c-0.07,2.66-0.12,3.62-0.24,5.13h5.99c0.68-1,0.93-1.29,1.71-2.22
			c1.25,0.98,1.64,1.27,2.83,2.3c0.1,0.1,0.15,0.2,0.15,0.27c0,0.1-0.12,0.2-0.27,0.2H47.38z"/>
		<path class="st1" d="M74.76,86.29h4.86c0.71-0.76,0.9-1,1.61-1.69c1.05,0.78,1.37,1.05,2.44,1.91c0.05,0.05,0.1,0.12,0.1,0.17
			c0,0.07-0.12,0.15-0.24,0.15h-8.77v2.81h6.06c0.71-0.83,0.95-1.07,1.71-1.81c1.15,0.85,1.49,1.12,2.59,1.98
			c0.1,0.1,0.15,0.15,0.15,0.2c0,0.07-0.15,0.17-0.24,0.17H65.16c-0.76,0-1.29,0.05-2.08,0.2l-0.17-0.98
			c0.68,0.17,1.44,0.24,2.25,0.24h7.38v-2.81h-5.67c-0.49,0-0.66,0.02-1.83,0.17l-0.15-0.95c0.59,0.15,1.39,0.24,1.98,0.24h5.67
			V83.5h-4.62v0.56c-0.1,0.49-0.37,0.59-1.73,0.59c-0.39,0-0.54-0.12-0.59-0.46c0.07-2.13,0.1-3.2,0.1-4.98
			c0-2.1-0.02-3.35-0.1-4.81c1.15,0.46,1.49,0.64,2.54,1.27h11.24c0.51-0.59,0.68-0.76,1.2-1.27c0.76,0.54,0.98,0.68,1.69,1.22
			c0.2,0.17,0.32,0.32,0.32,0.42c0,0.17-0.17,0.29-0.76,0.59c0.02,4.49,0.02,5.59,0.1,7.11c-0.02,0.27-0.1,0.39-0.29,0.49
			c-0.17,0.07-0.85,0.15-1.49,0.15c-0.34,0-0.46-0.1-0.54-0.42V83.5h-4.84V86.29z M66.97,90.83c0.02,0.32,0.05,0.59,0.05,0.73
			c0,1.73-0.64,3.35-1.64,4.23c-0.42,0.37-1.03,0.64-1.42,0.64c-0.54,0-0.9-0.59-0.9-1.39c0-0.39,0.1-0.76,0.27-0.93
			c0.1-0.15,0.24-0.22,0.81-0.46c0.85-0.39,1.2-0.64,1.66-1.2c0.44-0.51,0.63-0.88,0.9-1.69L66.97,90.83z M72.53,76.2h-4.62v3h4.62
			V76.2z M72.53,79.74h-4.62v3.22h4.62V79.74z M70.12,90.83c0.81,0.73,1.17,1.1,1.73,1.91c0.46,0.68,0.66,1.12,0.66,1.54
			c0,0.51-0.27,1.08-0.64,1.44c-0.32,0.27-0.83,0.51-1.15,0.51c-0.32,0-0.54-0.27-0.54-0.66c0-0.05,0-0.05,0.05-0.88
			c0.02-0.29,0.05-0.56,0.05-0.85c0-1.2-0.1-1.88-0.44-2.88L70.12,90.83z M74.68,90.91c2.27,1.42,3.25,2.44,3.25,3.37
			c0,0.88-0.81,1.95-1.47,1.95c-0.29,0-0.46-0.24-0.56-0.83c-0.46-2.44-0.66-3.03-1.42-4.37L74.68,90.91z M79.6,79.2v-3h-4.84v3
			H79.6z M74.76,82.97h4.84v-3.22h-4.84V82.97z M79.42,90.76c2.08,0.98,2.59,1.27,3.35,1.81c1.05,0.76,1.47,1.29,1.47,1.91
			c0,0.88-0.76,1.91-1.39,1.91c-0.2,0-0.39-0.15-0.54-0.37c-0.12-0.22-0.12-0.22-0.59-1.37c-0.22-0.54-0.81-1.56-1.37-2.35
			c-0.29-0.42-0.54-0.71-1.12-1.29L79.42,90.76z"/>
		<path class="st1" d="M95.97,79.89c0.51-0.76,0.66-0.98,1.15-1.66c0.78,0.78,1,1.03,1.69,1.81c0.1,0.12,0.12,0.17,0.12,0.24
			s-0.1,0.15-0.22,0.15h-3.15v2.32c0.76,0.37,1.1,0.56,1.83,1.05c1.2,0.78,1.61,1.29,1.61,2c0,0.83-0.64,1.86-1.15,1.86
			c-0.32,0-0.51-0.29-0.73-1.05c-0.54-1.98-0.88-2.69-1.56-3.44c0,8.5,0,8.5,0.05,12.9c-0.02,0.29-0.1,0.42-0.32,0.51
			c-0.2,0.1-0.88,0.17-1.39,0.17c-0.49,0-0.66-0.12-0.66-0.49c0.07-1.83,0.1-2.66,0.1-3.86c0-0.44,0.02-0.88,0.02-1.32
			c0-1.37,0-2.32,0.02-2.76l0.15-3.47c-1.32,3.2-2.13,4.47-3.91,6.33L89.4,91c1.03-1.83,1.66-3.32,2.66-6.23
			c0.71-2.05,0.93-2.91,1.12-4.35h-1.51c-0.54,0-0.93,0.05-1.51,0.2l-0.2-0.98c0.64,0.17,1.15,0.24,1.71,0.24h1.71v-2.91
			c0-1-0.02-1.54-0.15-2.61c2.86,0.24,3.4,0.34,3.4,0.64c0,0.2-0.22,0.34-1.05,0.63l-0.02,4.25H95.97z M100.46,87.46
			c-0.56,0-1.05,0.05-1.49,0.15l-0.17-0.88c0.68,0.15,1.07,0.2,1.76,0.2h2.49v-6.5h-2.1c-0.61,0-1,0.02-1.66,0.12l-0.17-0.88
			c0.66,0.15,1.2,0.22,1.83,0.22h7.08c0.73-0.9,0.95-1.17,1.66-2c1.12,0.9,1.47,1.17,2.54,2.13c0.1,0.12,0.15,0.2,0.15,0.24
			c0,0.1-0.12,0.17-0.27,0.17h-6.72v6.5h2.2c0.71-0.88,0.93-1.15,1.69-1.98c1.05,0.88,1.37,1.15,2.37,2.1
			c0.1,0.12,0.15,0.2,0.15,0.24c0,0.1-0.12,0.17-0.27,0.17h-6.13v7.62h3.1c0.76-0.98,1-1.25,1.76-2.13
			c1.17,0.95,1.54,1.25,2.59,2.27c0.1,0.12,0.15,0.17,0.15,0.22c0,0.1-0.1,0.17-0.22,0.17H98.83c-0.71,0-1.12,0.02-1.81,0.15
			l-0.2-0.9c0.73,0.17,1.15,0.22,2,0.22h4.23v-7.62H100.46z M100.88,74.49c1.88,0.44,3.3,0.88,4.2,1.32
			c1.03,0.49,1.37,0.95,1.37,1.86s-0.46,1.66-1,1.66c-0.32,0-0.37-0.05-1.05-1.03c-0.37-0.51-1.25-1.47-2.08-2.27
			c-0.44-0.44-0.76-0.68-1.54-1.27L100.88,74.49z"/>
		<path class="st1" d="M118.08,78.57c1.12,0.95,1.81,1.2,3.22,1.2c0.78,0,1.51-0.1,2.52-0.32c0.49-0.9,0.83-1.98,0.83-2.61
			c0-0.76-0.54-1.2-1.86-1.51c0.46-0.24,0.71-0.32,1.2-0.32c0.81,0,1.71,0.2,2.49,0.51c0.66,0.27,1,0.61,1,0.98
			c0,0.17-0.12,0.39-0.42,0.73c-0.34,0.44-0.34,0.44-1.29,1.86c2.15-0.71,2.52-0.88,3.32-1.56c0.2-0.15,0.37-0.22,0.64-0.22
			c1.03,0,1.83,0.46,1.83,1.03c0,0.49-0.39,0.73-1.95,1.22c-1.66,0.54-2.91,0.86-4.86,1.22c-0.61,0.85-0.78,1.12-1.25,1.81
			c-0.78,1.15-0.88,1.32-1.27,1.88c1.42-0.78,2.35-1.08,3.35-1.08c1.44,0,2.47,0.83,2.74,2.25c0.34-0.17,1-0.51,2-1
			c2.52-1.27,3.13-1.71,3.13-2.15c0-0.44-0.46-0.9-1.27-1.27c0.32-0.12,0.46-0.15,0.66-0.15c1.34,0,3.32,1.73,3.32,2.91
			c0,0.46-0.24,0.68-0.93,0.85c-2.15,0.54-4.93,1.54-6.6,2.37c0.05,1.27,0.05,1.47,0.05,1.83c0,1.27-0.05,1.91-0.2,2.17
			c-0.15,0.34-0.56,0.56-1,0.56c-0.61,0-0.98-0.37-0.98-0.93c0-0.1,0-0.1,0.07-1.07c0.05-0.42,0.05-0.86,0.07-1.64
			c-1.39,0.78-2.08,1.25-2.66,1.81c-0.73,0.71-1.1,1.39-1.1,2.08c0,1.22,1.22,1.81,3.79,1.81c1.1,0,2.42-0.15,3.59-0.39
			c0.46-0.1,0.54-0.1,1.37-0.39c0.12-0.05,0.39-0.1,0.51-0.1c0.37,0,0.88,0.2,1.34,0.51c0.46,0.32,0.73,0.71,0.73,1.12
			c0,0.39-0.32,0.71-0.85,0.85c-0.88,0.24-2.69,0.39-4.62,0.39c-2.74,0-4.4-0.32-5.55-1.07c-0.88-0.56-1.32-1.42-1.32-2.54
			c0-1.1,0.64-2.27,1.83-3.42c0.61-0.59,1.25-1.07,2.91-2.15c0-0.95-0.07-1.29-0.29-1.76c-0.22-0.44-0.66-0.71-1.2-0.71
			c-1.51,0-3.32,1.27-5.15,3.64c-0.59,0.76-0.78,0.9-1.15,0.9c-0.51,0-0.9-0.73-0.9-1.76c0-0.61,0.1-0.73,1.15-1.49
			c1.03-0.76,2.52-2.49,3.91-4.54c-0.51,0.05-0.76,0.07-1.03,0.07c-1.98,0-3.05-0.59-4.1-2.22L118.08,78.57z"/>
		<path class="st1" d="M37.06,127.49c0.51,0.98,0.88,1.32,1.86,1.76c1.81-1.39,2.88-2.49,3.52-3.64c1.12,0.32,1.17,0.34,1.83,0.56
			c0.34,0.12,0.59,0.2,0.71,0.24c0.34,0.1,0.49,0.2,0.49,0.37c0,0.15-0.1,0.22-0.29,0.27c-0.1,0.02-0.12,0.02-0.88,0.07
			c-1.49,1.05-2.88,1.69-4.91,2.3c1,0.34,2.59,0.49,5.06,0.49c2.74,0,4.57-0.1,10.65-0.54v0.27c-0.93,0.39-1.32,0.93-1.61,2.27
			c-0.9,0.05-6.06,0.12-7.72,0.12c-4.1,0-6.03-0.46-7.45-1.81c-0.73-0.68-1.17-1.34-1.76-2.71c-1.03,1.73-1.64,2.61-2.61,3.79
			c0.05,0.42,0.07,0.49,0.07,0.66c0,0.32-0.12,0.49-0.32,0.49c-0.29,0-0.64-0.59-1.83-3.05c0.9-0.34,1.59-0.71,3-1.59v-6.74h-1.44
			c-0.51,0-0.81,0.02-1.27,0.15l-0.29-0.88c0.66,0.15,1.17,0.2,1.56,0.2h1.27c0.51-0.56,0.68-0.73,1.2-1.37
			c0.81,0.51,1.05,0.71,1.76,1.32c0.17,0.17,0.24,0.27,0.24,0.37c0,0.12-0.12,0.29-0.32,0.42c-0.39,0.29-0.39,0.29-0.49,0.39
			L37.06,127.49z M32.88,110.78c1.1,0.61,1.93,1.15,2.93,1.91c0.93,0.73,1.29,1.27,1.29,1.95c0,0.9-0.83,2.05-1.49,2.05
			c-0.37,0-0.61-0.34-0.9-1.37c-0.54-1.76-1.07-2.93-2.05-4.32L32.88,110.78z M47.49,121.23v-0.68c0-0.71-0.05-1.12-0.15-1.69
			c2.25,0.15,3,0.32,3,0.61c0,0.17-0.24,0.34-0.81,0.56v1.2h1c0.51-0.64,0.68-0.83,1.22-1.47c0.9,0.68,1.17,0.9,2.08,1.69
			c0.07,0.07,0.1,0.12,0.1,0.17c0,0.07-0.12,0.15-0.29,0.15h-4.1v2.93h1.59c0.59-0.73,0.78-0.95,1.37-1.64
			c0.95,0.78,1.25,1.03,2.13,1.81c0.07,0.1,0.12,0.15,0.12,0.2c0,0.07-0.12,0.17-0.27,0.17H39.6c-0.12,0-0.27,0-0.49,0.02
			c-0.07,0.02-0.12,0.02-0.17,0.02l-0.59,0.1l-0.24-0.88c0.59,0.12,1.17,0.2,1.49,0.2h2.52v-2.93H40.4c-0.46,0-0.68,0.02-1.1,0.07
			c-0.12,0.02-0.12,0.02-0.2,0.02l-0.17-0.81c0.51,0.12,1,0.17,1.47,0.17h1.71v-0.66c0-0.76-0.05-1.1-0.15-1.69
			c1.76,0.15,2.08,0.17,2.47,0.22c0.34,0.07,0.56,0.22,0.56,0.39c0,0.17-0.22,0.32-0.81,0.54v1.2H47.49z M40.65,114.64v1.69
			c0,0.54,0.02,0.54,1.66,0.54c1.61,0,1.88-0.05,2.15-0.37c0.22-0.24,0.34-0.44,0.73-1.2l0.22,0.05l-0.02,1
			c0,0.12,0.05,0.17,0.27,0.24c0.34,0.15,0.54,0.39,0.54,0.76c0,0.44-0.37,0.81-0.93,0.9c-0.51,0.1-1.69,0.17-2.96,0.17
			c-2.22,0-2.81-0.07-3.15-0.39c-0.32-0.29-0.39-0.71-0.39-1.91v-1.22c0-0.59-0.05-1.54-0.1-1.93c0.93,0.46,1.22,0.61,2.15,1.12
			h2.54v-2.05h-3.49c-0.46,0-0.88,0.02-1.49,0.12l-0.17-0.85c0.54,0.12,1.12,0.2,1.66,0.2h3.4c0.42-0.49,0.56-0.64,1.05-1.07
			c0.68,0.49,0.9,0.64,1.56,1.12c0.15,0.1,0.2,0.2,0.2,0.27c0,0.15-0.1,0.24-0.71,0.68c-0.02,0.32-0.02,0.49-0.02,0.63
			c0,0.1,0,0.24,0,0.46c0,0.39,0.02,0.64,0.02,1.15c-0.02,0.22-0.12,0.29-0.39,0.37c-0.2,0.05-0.61,0.07-0.95,0.07
			c-0.51,0-0.64-0.07-0.66-0.37v-0.2H40.65z M44.19,124.7h3.3v-2.93h-3.3V124.7z M48.83,114.64v1.81c0,0.34,0.05,0.37,1.78,0.37
			c1.34,0,1.64-0.05,1.91-0.37c0.15-0.15,0.29-0.37,0.73-1.15l0.22,0.02l-0.02,0.78c0,0.29,0.02,0.32,0.29,0.44
			c0.51,0.24,0.66,0.39,0.66,0.76c0,0.44-0.34,0.76-0.98,0.9c-0.51,0.12-1.61,0.17-3.35,0.17c-1.91,0-2.49-0.1-2.83-0.46
			c-0.24-0.27-0.34-0.78-0.34-1.76v-1.73c0-0.66,0-0.93-0.07-1.42c0.98,0.37,1.27,0.51,2.17,1.1h2.47v-2.05h-3.54
			c-0.44,0-0.73,0.02-1.27,0.12l-0.2-0.81c0.46,0.07,1.2,0.15,1.47,0.15h3.37c0.39-0.49,0.54-0.64,0.98-1.1
			c0.71,0.49,0.93,0.64,1.64,1.17c0.12,0.12,0.2,0.2,0.2,0.27c0,0.15-0.07,0.22-0.66,0.61c0,0.37,0,0.51,0,0.83
			c0,0.24,0,0.56,0,1.05c0.02,0.22,0.02,0.29,0.02,0.42c-0.02,0.17-0.1,0.24-0.32,0.32c-0.29,0.07-0.85,0.12-1.27,0.12
			c-0.32,0-0.39-0.07-0.42-0.32v-0.24H48.83z M47.24,125.78c1.15,0.12,2.17,0.32,3.05,0.54c0.95,0.24,1.47,0.46,1.76,0.78
			c0.37,0.34,0.56,0.81,0.56,1.29c0,0.56-0.34,0.95-0.83,0.95c-0.34,0-0.66-0.2-1.15-0.71c-1.22-1.27-2.17-1.98-3.52-2.61
			L47.24,125.78z"/>
		<path class="st1" d="M61.06,122.09c0.54,0,0.56-0.02,3.37-2.83c1.66-1.66,2.64-2.27,3.59-2.27c1.07,0,1.78,0.44,4.37,2.71
			c3.44,3.05,5.25,4.27,7.28,5.03c0.59,0.22,1,0.66,1.34,1.42c0.2,0.42,0.29,0.93,0.29,1.39c0,0.56-0.32,0.95-0.76,0.95
			c-0.46,0-1.29-0.39-2.37-1.12c-1.91-1.27-4.01-3.27-6.67-6.3c-2.17-2.49-2.83-3.03-3.59-3.03c-0.64,0-1.32,0.59-2.3,2
			c-0.71,0.98-1.49,2.47-1.88,3.49c-0.2,0.54-0.27,0.68-0.42,0.83c-0.22,0.17-0.46,0.27-0.71,0.27c-1.32,0-3.4-2.03-3.4-3.35
			c0-0.05,0-0.05,0.1-0.46C59.84,121.6,60.5,122.09,61.06,122.09z M72.71,114.05c1.17,0.37,1.98,0.71,2.74,1.17
			c0.93,0.59,1.27,1.03,1.27,1.66c0,0.66-0.34,1.25-0.76,1.25c-0.22,0-0.39-0.15-0.59-0.54c-0.81-1.47-1.51-2.35-2.78-3.32
			L72.71,114.05z M74.88,112.54c1.15,0.17,2.25,0.56,3.08,1.03c0.73,0.44,1,0.81,1,1.42c0,0.73-0.29,1.29-0.68,1.29
			c-0.2,0-0.34-0.15-0.59-0.54c-0.68-1.25-1.56-2.15-2.91-3L74.88,112.54z"/>
		<path class="st1" d="M87.09,114.83c1.34,1.2,2.25,1.51,4.2,1.51c0.95,0,2.13-0.1,3.3-0.29c-0.02-1.51-0.12-2.49-0.27-3.08
			c-0.2-0.76-0.83-1.15-2.03-1.27c0.39-0.37,0.71-0.46,1.49-0.46c0.83,0,1.86,0.17,2.49,0.39c0.66,0.27,0.95,0.56,0.95,0.98
			c0,0.22-0.02,0.32-0.32,0.85c-0.27,0.56-0.37,0.95-0.51,2.27c2.2-0.46,3.25-0.81,4.08-1.34c0.29-0.2,0.44-0.24,0.64-0.24
			c0.39,0,1.15,0.27,1.49,0.51c0.27,0.2,0.42,0.44,0.42,0.66c0,0.42-0.39,0.68-1.37,0.95c-1.51,0.42-3.49,0.83-5.35,1.08
			c-0.05,0.68-0.05,1-0.05,1.39l0.02,1.69c0,0.02,0,0.12-0.02,0.29c1.59-0.24,3.08-0.71,3.69-1.12c0.37-0.24,0.42-0.27,0.68-0.27
			c0.44,0,1.07,0.2,1.42,0.44c0.24,0.17,0.34,0.32,0.34,0.56c0,0.51-0.49,0.81-2.03,1.22c-1.25,0.32-2.86,0.64-4.03,0.73
			c0.12,2.91,0.12,2.96,0.24,3.79c1.95,0.37,3.79,1.03,4.96,1.81c0.9,0.61,1.29,1.22,1.29,2.13c0,0.76-0.29,1.25-0.76,1.25
			c-0.34,0-0.42-0.05-1.12-0.78c-1.05-1.05-2.74-2.05-4.27-2.54c0.05,0.46,0.07,0.66,0.07,0.93c0,1.03-0.29,1.73-0.95,2.25
			c-0.71,0.54-1.95,0.88-3.27,0.88c-2.61,0-4.57-1.25-4.57-2.88c0-1.86,2.59-3.2,6.13-3.2c0.15,0,0.34,0,0.61,0v-3.1
			c0-0.05,0-0.17,0-0.34c-1.03,0.05-1.25,0.05-1.59,0.05c-1.15,0-2.2-0.15-3-0.39c-1-0.34-1.61-1.15-1.61-2.17
			c0-0.12,0.02-0.42,0.1-0.76l0.29,0.02c0.02,0.71,0.15,1.03,0.44,1.32c0.42,0.42,1.39,0.61,2.86,0.61c0.81,0,1.44-0.05,2.52-0.17
			c0-0.61-0.02-2.56-0.05-3.47c-1.03,0.12-1.54,0.15-2.37,0.15c-2.88,0-4.06-0.56-5.42-2.61L87.09,114.83z M92.54,127.29
			c-2.27,0-3.86,0.76-3.86,1.86c0,0.83,0.98,1.34,2.59,1.34c1.2,0,2.22-0.29,2.81-0.81c0.32-0.29,0.46-0.63,0.54-1.25
			c0-0.15,0.02-0.66,0.02-0.85c0-0.05,0-0.1,0-0.1C93.74,127.34,93.22,127.29,92.54,127.29z"/>
		<path class="st1" d="M115.76,132.47c2.96-1.69,4.32-3.35,4.96-6.01c-0.51,0.32-0.98,0.46-1.54,0.46c-1.81,0-3.18-1.64-3.18-3.84
			c0-2.22,1.42-3.84,3.37-3.84c0.49,0,0.76,0.07,1.42,0.42c0-0.42,0-0.64,0-1.66c0-0.81,0-0.83,0-1.25
			c-3.2,0.37-5.94,1.07-7.67,1.95c-0.17,0.07-0.46,0.15-0.66,0.15c-0.61,0-1.27-0.44-1.93-1.32c-0.51-0.66-0.83-1.39-0.83-1.86
			c0-0.07,0.02-0.2,0.1-0.37c0.68,0.93,1.49,1.37,2.54,1.37c0.68,0,0.68,0,4.84-0.61c1.07-0.15,1.86-0.24,3.57-0.46
			c-0.02-1.81-0.15-2.59-0.49-3.08c-0.39-0.51-0.93-0.78-2.05-0.95c0.39-0.39,0.66-0.49,1.42-0.49c0.88,0,1.78,0.15,2.59,0.39
			c0.83,0.27,1.25,0.64,1.25,1.12c0,0.22-0.05,0.34-0.24,0.73c-0.34,0.61-0.44,0.98-0.56,2.05c3.81-0.32,3.81-0.32,4.59-0.64
			c0.46-0.17,0.71-0.24,0.95-0.24c0.64,0,1.66,0.42,2.32,0.95c0.29,0.27,0.42,0.49,0.42,0.83c0,0.37-0.29,0.61-0.78,0.61
			c-0.2,0-0.44-0.02-1.39-0.15c-1.32-0.17-2.37-0.24-3.88-0.24c-0.88,0-1.39,0.02-2.3,0.1c-0.1,1.05-0.17,2.71-0.17,3.62
			c0,0.12,0,0.34,0.02,0.64c0.61,1.2,0.81,2.03,0.81,3.32c0,2.66-1.1,4.94-3.1,6.52c-1.07,0.81-2.05,1.29-4.2,2.05L115.76,132.47z
			 M119.21,119.91c-1.03,0-1.78,1.05-1.78,2.52s0.78,2.56,1.86,2.56c0.98,0,1.51-0.78,1.51-2.2
			C120.8,120.91,120.26,119.91,119.21,119.91z"/>
		<path class="st1" d="M140.03,128.71c0,1.08-0.83,1.91-1.88,1.91c-1.07,0-1.91-0.83-1.91-1.91c0-1.05,0.83-1.88,1.91-1.88
			C139.2,126.83,140.03,127.66,140.03,128.71z M137.66,124.99c-0.07-2.64-0.15-3.76-0.39-5.79c-0.27-2.2-0.32-2.47-0.83-5.15
			c-0.07-0.34-0.12-0.85-0.12-1.05c0-0.81,0.61-1.2,1.83-1.2c1.22,0,1.81,0.39,1.81,1.2c0,0.42,0,0.46-0.42,2.71
			c-0.49,2.64-0.83,6.01-0.93,9.28H137.66z"/>
	</g>
	<polyline class="st0" points="18.76,131.69 8.12,163.61 36.05,151.64 	"/>
</g>
</svg>
