<?xml version="1.0" encoding="utf-8"?>
<!-- Generator: Adobe Illustrator 24.0.0, SVG Export Plug-In . SVG Version: 6.00 Build 0)  -->
<svg version="1.1" id="Layer_1" xmlns="http://www.w3.org/2000/svg" xmlns:xlink="http://www.w3.org/1999/xlink" x="0px" y="0px"
	 viewBox="0 0 113 195.76" style="enable-background:new 0 0 113 195.76;" xml:space="preserve">
<style type="text/css">
	.st0{fill:#111010;}
</style>
<g>
	<path class="st0" d="M89.8,134.1c-0.75,0.42-1.51,0.83-2.24,1.28c-0.27,0.17-0.62,0.44-0.65,0.7c-0.08,0.7,0.53,0.44,0.9,0.54
		c0.28,0.08,0.53,0.26,0.78,0.41c0.34,0.2,0.36,0.37-0.02,0.57c-1.08,0.57-2.15,1.15-3.23,1.73l-0.05,0.01
		c-0.19,0.05-0.37,0.11-0.56,0.16l-0.06,0.02c-0.12-0.01-0.23-0.02-0.35-0.04c0.05,0.13,0.1,0.27,0.16,0.4l0.01,0.04
		c-2.44,0.74-4.87,1.51-7.33,2.22c-0.98,0.28-2.01,0.42-3.02,0.62c-0.81,1.35-2.34,1.15-3.56,1.58c-1.55,0.55-3.17,0.92-4.74,1.42
		c-0.76,0.24-1.47,0.68-2.24,0.88c-1.48,0.38-2.91,0.9-4.39,1.31c-0.35,0.1-0.65,0.56-0.87,0.92c-0.59,0.96-0.99,2.06-1.71,2.9
		c-1.53,1.78-3.01,3.59-4.12,5.67c-0.07,0.13-0.12,0.28-0.22,0.39c-0.88,0.96-1.84,1.87-1.88,3.31c0,0.06-0.4,0.18-0.42,0.15
		c-0.61-0.95-0.55,0.18-0.81,0.26c-0.27,0.18-0.63,0.3-0.78,0.55c-0.81,1.35-1.51,2.77-2.35,4.1c-0.98,1.55-1.94,3.14-3.12,4.52
		c-1.97,2.3-2.79,3.43-3.54,5.6c-0.08,0.25,0.42,0.8-0.31,0.71c-0.1-0.01-0.2-0.46-0.21-0.71c-0.03-0.55-0.41-0.34-0.57-0.23
		c-1.02,0.69-2.07,1.35-2.73,2.44c-0.1,0.16-0.31,0.24-0.47,0.36c0.04-0.21,0.04-0.43,0.11-0.63c0.08-0.21,0.23-0.39,0.31-0.6
		c0.05-0.13,0.01-0.28,0.01-0.43c-0.12,0.07-0.29,0.11-0.36,0.22c-0.52,0.87-1.14,1.61-2.14,1.93c0.27-0.45,0.45-0.98,0.81-1.33
		c1.11-1.06,2.18-2.13,2.92-3.49c0.1-0.18,0.26-0.37,0.44-0.47c0.18-0.11,0.43-0.11,0.64-0.16c-0.01,0.18,0.03,0.38-0.03,0.55
		c-0.07,0.21-0.22,0.39-0.31,0.6c-0.05,0.13-0.04,0.28-0.06,0.42c0.15-0.08,0.35-0.13,0.44-0.25c1.2-1.65,2.86-2.94,3.78-4.81
		c0.09-0.18,0.47-0.2,0.7-0.32c0.22-0.12,0.61-0.36,0.59-0.42c-0.4-1.07,0.94-1.03,1.09-1.73c0.12,0.01,0.24,0.02,0.37,0.03
		c-0.05-0.14-0.1-0.28-0.15-0.42c0.8-1.45,1.61-2.89,2.41-4.34c1.04,0.05,0.84-1,1.29-1.47c0.03-0.03-0.07-0.2-0.11-0.3
		c-0.07,0.03-0.17,0.03-0.2,0.08c-0.33,0.56-0.66,1.13-0.98,1.69c-0.13-0.07-0.26-0.15-0.4-0.22c0.65-1.15,1.39-2.21,2.23-3.25
		c1.51-1.88,2.91-3.88,3.99-6.07c0.32-0.64,0.57-1.36,1.35-1.72c0.33-0.15,0.7-0.64,0.24-1.1c-0.34-0.33-0.2-0.46,0.14-0.59
		c1.26-0.48,0.95-1.62,0.99-2.56c0.02-0.37-0.37-0.76-0.58-1.14c-0.24,0.26-0.43,0.64-0.73,0.74c-1.03,0.36,0.11,0.78-0.06,1.08
		c-0.71,1.19-1.01,2.66-2.34,3.43c-0.17,0.1-0.33,0.19-0.5,0.29c0.07-0.27,0.13-0.55,0.22-0.82c0.05-0.14,0.15-0.26,0.22-0.39
		c1.04,0.06,0.85-0.99,1.3-1.47c0.03-0.03-0.07-0.2-0.13-0.29c-0.01-0.01-0.16,0.03-0.19,0.08c-0.33,0.56-0.65,1.13-0.98,1.7
		c-0.07-0.12-0.24-0.29-0.21-0.35c0.86-1.6,1.39-3.38,2.84-4.65c0.38-0.33,0.54-1,0.62-1.54c0.04-0.27-0.5-0.63-0.47-0.91
		c0.04-0.33,0.62-0.65,0.59-0.93c-0.15-1.3,0.44-2.18,1.37-2.94c0.2-0.06,0.41-0.11,0.61-0.17c0.12,0.06,0.24,0.16,0.37,0.18
		c0.14,0.01,0.28-0.06,0.43-0.09c-0.09-0.09-0.19-0.27-0.27-0.26c-0.18,0.01-0.35,0.12-0.53,0.18c-0.2,0.06-0.41,0.12-0.61,0.18
		c-0.43-0.32-0.26-0.71,0.02-0.94c0.33-0.27,0.89-0.3,1.14-0.61c0.28-0.35,0.26-0.91,0.49-1.32c0.12-0.22,0.48-0.31,0.73-0.46
		c0.12,0.01,0.25,0.01,0.37,0.02c-0.02-0.08-0.04-0.15-0.06-0.23c-0.11,0.07-0.21,0.14-0.32,0.21c-0.26-0.15-0.56-0.24-0.75-0.45
		c-0.35-0.38,0.15-1.3,0.24-1.18c0.68,0.89,1.21-0.01,1.44-0.24c0.74-0.75,1.31-1.66,1.92-2.53c0.03-0.04-0.13-0.22-0.21-0.33
		c0.87-0.87,1.65-1.75,1.59-3.12c-0.03-0.7,0.21-1.42,0.29-2.13c0.13-1.2,0.97-2.11,1.3-3.24c0.26-0.9,0.63-1.76,0.96-2.64
		c0.13,0.01,0.25,0.02,0.38,0.03c-0.02-0.08-0.04-0.16-0.06-0.24c-0.1,0.07-0.21,0.15-0.31,0.22c-0.08-0.11-0.23-0.31-0.23-0.31
		c0.71-0.6,0.67-1.56,1.16-2.28c0.13,0.07,0.26,0.14,0.39,0.22c-0.13,0.33-0.52,0.66-0.05,1.01c-0.13,0.33-0.53,0.66-0.05,1.01
		c-0.14,0.33-0.52,0.65-0.04,1.01c0.03,0.15,0.06,0.3,0.09,0.44c0.1-0.07,0.2-0.15,0.3-0.23c0.48,0.36,0.1,0.68-0.05,1.01
		c-0.73,0.03-0.8,0.16-0.44,0.78c-0.43,1.06-0.43,1.06,0.14,1.82c0.36,0.48,0.12,1.28-0.5,1.61c0.01-0.13,0.02-0.25,0.03-0.38
		c-0.08,0.02-0.15,0.04-0.23,0.06c0.07,0.1,0.14,0.21,0.21,0.31c-0.08,0.27-0.17,0.54-0.25,0.81c1.01-0.13,0.6,0.39,0.37,0.82
		c-0.07,0.13-0.14,0.26-0.22,0.39c-0.14,0.03-0.29,0.07-0.43,0.1c0.07,0.1,0.14,0.19,0.22,0.29c0.04,0.35,0.21,0.75,0.1,1.04
		c-0.49,1.24,0.81,1.12,1.25,1.61c0.31,0.35,1.01,0.35,1.54,0.51c-0.54,0.04-1.1,0.17-1.63,0.12c-1.14-0.11-2.26,0.07-3.42-0.09
		c-1.42-0.19-2.17,1.27-3.23,1.98c-0.3,0.2-0.5,0.75-0.5,1.15c0,0.21,0.55,0.4,0.79,0.65c0.16,0.18,0.21,0.46,0.32,0.7
		c-0.2,0.06-0.41,0.12-0.61,0.18c-0.2,0.06-0.41,0.12-0.61,0.18c-0.12-0.01-0.25-0.02-0.37-0.03c0.02,0.08,0.04,0.15,0.06,0.23
		c0.1-0.07,0.2-0.14,0.3-0.22c0.2-0.06,0.41-0.12,0.61-0.17c0.2-0.06,0.41-0.11,0.61-0.17c0.84,0.64,0.84,0.66,0.08,1.15
		c-0.12,0.08-0.23,0.17-0.35,0.26c-0.2,0.06-0.41,0.12-0.61,0.17c-0.2,0.06-0.41,0.12-0.61,0.17c-0.13-0.01-0.25-0.02-0.38-0.02
		c0.02,0.08,0.05,0.15,0.07,0.23c0.1-0.07,0.2-0.15,0.31-0.22c0.2-0.06,0.41-0.12,0.61-0.17c0.2-0.06,0.41-0.12,0.61-0.18
		c0.2,0.09,0.41,0.29,0.59,0.26c1.1-0.16,0.58,0.39,0.38,0.8c-0.13-0.01-0.25-0.02-0.38-0.02c0.02,0.08,0.04,0.15,0.07,0.23
		c0.1-0.07,0.2-0.14,0.31-0.22c0.27,0.02,0.54,0.04,0.82,0.07c-0.13,0.22-0.21,0.58-0.4,0.64c-1.37,0.48-2.76,0.91-4.14,1.35
		c-0.2,0.06-0.41,0.12-0.61,0.17c-0.12-0.01-0.25-0.02-0.37-0.03c0.02,0.08,0.04,0.16,0.06,0.23c0.1-0.07,0.21-0.14,0.31-0.22
		c0.2-0.06,0.41-0.12,0.61-0.18c0.56,0.47,1.12,0.14,1.68,0.02c1.46-0.32,2.92-0.64,4.38-0.94c0.15-0.03,0.33,0.1,0.5,0.16
		c-0.12,0.16-0.23,0.34-0.38,0.48c-0.16,0.14-0.36,0.23-0.53,0.34c-0.21,0.06-0.42,0.12-0.61,0.17c-1.06-0.49-1.95,0.01-2.85,0.48
		c-0.2,0.06-0.41,0.12-0.61,0.18c-0.2,0.06-0.41,0.12-0.61,0.17c-0.2,0.06-0.41,0.12-0.61,0.17c-0.12-0.01-0.24-0.02-0.36-0.04
		c0.05,0.14,0.1,0.28,0.14,0.43c-0.33,0.15-0.64,0.36-0.99,0.43c-1.3,0.26-1.28,0.48-0.86,1.69c0.14,0.41,0.42,0.76,0.65,1.14
		c0.38,0.62,0.94,0.75,1.52,0.4c1.58-0.97,3.37-1.09,5.13-1.42c0.95-0.18,1.86-0.57,2.8-0.78c0.85-0.19,1.73-0.33,2.6-0.38
		c1.27-0.07,2.39-0.65,3.49-1.12c1.74-0.73,3.5-1.29,5.31-1.76c0.75-0.2,1.7-0.1,2.08-1.07c0.2-0.06,0.41-0.12,0.61-0.17
		c0.65-0.35,1.28-0.75,1.96-1.03c0.68-0.27,1.4-0.5,2.12-0.6c0.76-0.1,0.23-0.7,0.48-0.97c0.07,0.03,0.13,0.07,0.2,0.09
		c0.34,0.12,0.68,0.24,1.01,0.35c-0.04-0.22-0.01-0.49-0.14-0.64c-0.42-0.5-0.74-0.02-1.09,0.16c-1.54,0.43-3.21,0.27-4.66,1.13
		c-0.23,0.14-0.68-0.1-1.02-0.16c0.04-0.15,0.11-0.28,0.21-0.4c0.2-0.06,0.41-0.12,0.61-0.18c0.12,0,0.25,0.01,0.37,0.01
		c-0.03-0.08-0.05-0.15-0.08-0.23c-0.1,0.08-0.2,0.15-0.29,0.23c-0.13-0.08-0.26-0.15-0.4-0.23c0.15-0.26,0.3-0.53,0.43-0.79
		c0.21-0.06,0.42-0.12,0.61-0.17c0.78-0.18,1.6-0.25,2.32-0.56c1.27-0.55,2.48-1.27,3.72-1.88c0.51-0.25,0.85-0.17,0.71,0.52
		c-0.12,0-0.24,0-0.36,0c0.02,0.07,0.04,0.14,0.06,0.22c0.1-0.07,0.2-0.14,0.3-0.21c0.23-0.1,0.47-0.17,0.69-0.29
		c0.51-0.27,1.02-0.48,1.54-0.03L89.8,134.1z M65.15,125.5c-0.02,0.34-0.03,0.67-0.05,1.01c-0.01,0.13-0.01,0.25-0.02,0.38
		c0.08-0.02,0.15-0.05,0.23-0.07c-0.07-0.1-0.15-0.2-0.22-0.3c0.13-0.33,0.53-0.65,0.04-1.01c0.15-0.33,0.53-0.65,0.05-1.01
		c0.07-0.12,0.17-0.24,0.19-0.37c0.01-0.14-0.06-0.29-0.1-0.43c-0.09,0.09-0.27,0.19-0.27,0.28c0.01,0.18,0.12,0.35,0.18,0.53
		C65.05,124.82,64.69,125.14,65.15,125.5z M50.35,158.53c-0.09,0.27-0.17,0.54-0.25,0.81c0.19-0.17,0.41-0.32,0.55-0.52
		c0.25-0.36,0.59-0.74,0.65-1.15c0.06-0.4,1.18-0.24,0.47-0.79c-0.51-0.39-0.62,0.39-0.87,0.69c-0.14,0.17-0.22,0.38-0.34,0.57
		C50.49,158.27,50.4,158.39,50.35,158.53z M36.16,176.73c-0.01,0.01,0.19,0.15,0.19,0.15c0.17-0.21,0.35-0.42,0.49-0.66
		c0.03-0.06-0.07-0.2-0.17-0.43C36.47,176.15,36.3,176.43,36.16,176.73z M56.71,149.79c0.04-0.13-0.02-0.29-0.04-0.44
		c-0.1,0.08-0.23,0.15-0.28,0.26c-0.04,0.11,0.01,0.25,0.02,0.38C56.52,149.93,56.69,149.88,56.71,149.79z M53.12,154.78
		c0.13-0.06,0.31-0.1,0.39-0.2c0.06-0.08,0.01-0.25,0.01-0.38c-0.11,0.07-0.22,0.14-0.33,0.2
		C53.16,154.53,53.14,154.66,53.12,154.78z M49.39,160.15c0.04-0.12-0.03-0.28-0.05-0.43c-0.09,0.09-0.23,0.16-0.27,0.26
		c-0.04,0.11,0.01,0.25,0.02,0.38C49.19,160.29,49.36,160.24,49.39,160.15z M63.31,129.89c0.06,0.11,0.1,0.29,0.18,0.32
		c0.13,0.04,0.29-0.04,0.43-0.06c-0.08-0.09-0.16-0.19-0.24-0.28C63.56,129.87,63.43,129.88,63.31,129.89z M65.39,122.38
		c-0.06,0.18-0.07,0.37-0.09,0.55c0.06-0.02,0.16-0.03,0.19-0.07c0.1-0.15,0.18-0.31,0.3-0.53
		C65.57,122.35,65.4,122.34,65.39,122.38z M52.49,155.83c0.01,0.08,0.02,0.16,0.03,0.23c0.06-0.02,0.15-0.03,0.16-0.07
		c0.02-0.04-0.03-0.11-0.05-0.17C52.59,155.83,52.54,155.83,52.49,155.83z M53.99,153.55c-0.09-0.02-0.17-0.04-0.26-0.05
		c0.02,0.06,0.03,0.13,0.06,0.17c0.02,0.02,0.09,0.01,0.13,0.01C53.95,153.63,53.97,153.59,53.99,153.55z M64.03,131.34
		c0.09,0.05,0.19,0.09,0.28,0.14c-0.03-0.07-0.05-0.14-0.08-0.2C64.17,131.29,64.1,131.31,64.03,131.34z M58.89,139.23
		c-0.09-0.02-0.18-0.04-0.27-0.06c0.02,0.06,0.03,0.13,0.07,0.17c0.02,0.02,0.09,0.01,0.14,0.01
		C58.85,139.31,58.87,139.27,58.89,139.23z M56.12,142.33c-0.09-0.02-0.18-0.04-0.27-0.06c0.02,0.06,0.03,0.13,0.07,0.17
		c0.02,0.02,0.09,0.01,0.14,0.01C56.08,142.41,56.1,142.37,56.12,142.33z M63.6,128.93c-0.09-0.02-0.17-0.03-0.26-0.05
		c0.02,0.06,0.03,0.13,0.06,0.17c0.02,0.02,0.09,0,0.14,0C63.56,129.02,63.58,128.98,63.6,128.93z M65.52,121.45
		c0.08-0.01,0.16-0.02,0.24-0.04c-0.02-0.06-0.03-0.13-0.05-0.19c-0.06,0.02-0.12,0.05-0.18,0.07
		C65.53,121.34,65.52,121.4,65.52,121.45z"/>
	<path class="st0" d="M5.51,180.59c-0.12,0.6-1.08,0.96-0.49,1.76l0.01,0.04c-0.08,0.27-0.15,0.54-0.23,0.81
		c0.22-0.04,0.48-0.03,0.65-0.15c0.23-0.16,0.4-0.42,0.58-0.63c0.56,0.22,0.63-0.28,0.83-0.57c0.23-0.09,0.46-0.16,0.68-0.26
		c0.47-0.21,0.93-0.44,1.39-0.66c-0.85,1.46-2.34,2.11-3.72,2.86c-0.41,0.23-0.51,0.36-0.39,0.78c0.08,0.27,0.06,0.57,0.04,0.86
		c-0.03,0.55,0.13,0.39,0.43,0.16c0.81-0.6,1.64-1.18,2.5-1.72c0.29-0.19,0.67-0.24,1.01-0.36c-0.18,0.26-0.37,0.52-0.55,0.79
		c-0.33,0.48-0.66,0.97-0.96,1.47c-0.02,0.04,0.19,0.31,0.28,0.3c0.21-0.02,0.43-0.12,0.62-0.22c0.18-0.09,0.34-0.21,0.51-0.32
		c-0.07,0.27-0.06,0.6-0.22,0.81c-0.35,0.45-0.82,0.8-1.17,1.25c-0.11,0.15,0.04,0.49,0.06,0.73c-0.36,0.42-1.02,0.86-0.99,1.26
		c0.03,0.46,0.65,0.89,1.03,1.31c0.15,0.16,0.4,0.21,0.56,0.37c0.6,0.61,2.76,1.93,3.51,1.86c0.68-0.06,1.36-0.43,1.99-0.77
		c0.95-0.5,1.94-0.93,2.74-1.71c0.48-0.47,1.2-0.7,1.81-1.04c-0.89,1.83-2.63,2.59-4.31,3.42c-0.23,0.11-0.9-0.08-0.58,0.52
		c0.11,0.2,0.63,0.23,0.97,0.23c0.24,0,0.48-0.18,0.73-0.28c-0.01,0.12-0.02,0.25-0.03,0.37c0.08-0.02,0.16-0.04,0.23-0.06
		c-0.07-0.1-0.14-0.2-0.21-0.3c1.79-1.45,3.53-2.96,5.38-4.34c2.73-2.04,5.52-3.99,8.29-5.98c0.65-0.47,1.24-0.95,1.81-1.55
		c0.79-0.84,1.55-1.85,2.74-2.25c-0.22,0.61-0.44,1.22-0.67,1.83c-0.1,0.27-0.19,0.55-0.32,0.8c-0.01,0.02-0.31-0.02-0.39-0.11
		c-0.33-0.41-0.33-0.42-0.44-0.17c-0.15,0.34-0.36,0.99-0.42,0.98c-0.62-0.14-0.62,0.17-0.82,0.65c-0.28,0.66-0.84,1.27-1.42,1.73
		c-1.46,1.17-2.73,2.53-4,3.9c-0.97,1.04-2.02,2.26-3.28,2.69c-1.6,0.54-2.48,1.55-3.35,2.77c-0.12,0.17-0.3,0.37-0.48,0.41
		c-1.22,0.28-2.48,0.43-3.66,0.82c-0.64,0.21-1.26-0.82-1.81,0.07c-0.02,0.02-0.23-0.02-0.29-0.09c-1.36-1.55-1.36-1.55-2.89-1.98
		c-0.56-0.16-1.6-1.14-1.7-1.98c-0.1-0.73-0.68-0.69-1.02-1.01c-0.03-0.15-0.07-0.29-0.1-0.44c-0.1,0.07-0.2,0.15-0.29,0.22
		c-0.9-0.72-1.27-1.68-1.33-2.81c-0.03-0.46-0.23-0.78-0.87-0.72c-1.13,0.11-1.13,0.05-1.02-0.88c0.05-0.42,0.1-0.85,0.1-1.28
		c0.02-1.82,0.04-3.64,0-5.46c-0.01-0.49,0.18-0.69,0.52-1.01c0.99-0.93,1.83-2.01,3.07-2.69c0.48-0.27,1.18-0.81,1.16-1.2
		c-0.06-1.18,1.35,0.05,1.39-1c0.01-0.4,0.72-0.79,1.12-1.17c0.16-0.15,0.37-0.24,0.54-0.38c1.66-1.29,3.32-2.56,4.96-3.87
		c1.75-1.4,3.49-2.82,5.23-4.25c3.52-2.88,6.62-6.21,9.86-9.4c2.26-2.22,4.38-4.59,6.47-6.98c0.43-0.49,1-0.29,1.23-0.55
		c0.35-0.4,0.37-1.07,0.57-1.61c0.07-0.19,0.25-0.36,0.4-0.51c1.06-1.01,2.04-2.05,2.78-3.35c0.76-1.33,1.85-2.48,2.58-3.83
		c1.51-2.81,2.97-5.65,4.23-8.57c0.46-1.05,1.28-1.98,1.32-3.21c0.06-1.68,0.63-3.22,1.27-4.73c0.07-0.16,0.34-0.39,0.32-0.41
		c-0.73-0.75-0.15-1.08,0.4-1.54c0.45-0.38,1.13-0.81,0.6-1.6c0.09-0.77,0.71-1.49,0.27-2.32c0.61-1.42,1.22-2.83,1.85-4.26
		c0.04,0.55,0.17,1.11,0.09,1.64c-0.19,1.35-0.47,2.68-0.7,4.03c-0.21,1.21-0.26,2.43-0.88,3.56c-0.3,0.54-0.31,1.24-0.45,1.86
		c1.37,0.72,0.51,1.81,0.29,2.62c-0.62,2.31-1.03,4.72-2.5,6.7c0.01-0.32-0.02-0.64,0.02-0.96c0.04-0.28,0.15-0.54,0.23-0.82
		c-0.23,0.23-0.52,0.42-0.68,0.69c-0.86,1.5-1.68,3.01-2.53,4.52c-0.29,0.51-0.47,1.12-1.15,1.27c0.35,1.05-0.52,1.01-1.09,1.27
		c-0.18,0.08-0.34,0.29-0.44,0.47c-0.77,1.52-1.84,2.83-2.83,4.21c-1.34,1.85-2.23,3.97-3.7,5.79c-1.33,1.64-2.72,3.3-3.61,5.3
		c-0.37,0.83-1.15,1.49-1.75,2.21c-0.05,0.05-0.27,0.05-0.32-0.01c-0.09-0.1-0.18-0.28-0.15-0.41c0.04-0.17,0.17-0.32,0.28-0.46
		c0.94-1.12,2.07-2.09,2.64-3.49c0.05-0.13,0.05-0.28,0.08-0.42c-0.15,0.07-0.33,0.09-0.44,0.2c-2.13,2.16-4.19,4.39-6.37,6.49
		c-2.91,2.8-5.89,5.53-8.91,8.22c-1.51,1.34-3.38,2.33-4.75,3.8c-2.2,2.35-4.92,4.05-7.28,6.19c-0.69,0.63-1.79,0.93-2.27,1.66
		c-0.47,0.72-0.37,1.8-0.58,2.71c-0.13,0.56,0.3,0.59,0.57,0.8L5.51,180.59z M19.15,191.66c0.08-0.02,0.16-0.05,0.23-0.07
		c-0.07-0.1-0.15-0.2-0.22-0.31c0.01-0.12,0.02-0.25,0.03-0.37c-0.08,0.02-0.16,0.04-0.23,0.06c0.07,0.1,0.14,0.2,0.22,0.31
		C19.16,191.41,19.16,191.54,19.15,191.66z M16.52,193.33c-0.08,0.04-0.07,0.24-0.09,0.37c0.14-0.04,0.3-0.06,0.41-0.14
		c0.1-0.08,0.15-0.23,0.23-0.35c0.55,0.21,0.63-0.27,0.83-0.57c0.19-0.03,0.39-0.03,0.55-0.12c0.08-0.04,0.06-0.24,0.09-0.37
		c-0.14,0.04-0.31,0.06-0.42,0.14c-0.1,0.08-0.15,0.24-0.22,0.36c-0.57-0.23-0.63,0.28-0.83,0.57
		C16.88,193.25,16.67,193.24,16.52,193.33z M5.53,186.15c-0.24,0.21-0.45,0.46-0.68,0.69c0.05,0.05,0.12,0.14,0.15,0.13
		c0.24-0.08,0.51-0.14,0.69-0.29c0.14-0.12,0.16-0.38,0.25-0.62C5.75,186.09,5.61,186.08,5.53,186.15z M3.59,185.3
		c-0.1,0.1-0.29,0.19-0.29,0.28c0.01,0.19,0.09,0.39,0.2,0.55c0.04,0.05,0.24-0.01,0.43-0.03C3.82,185.82,3.71,185.56,3.59,185.3z
		 M50.33,128.04c-0.05,0.1,0.06,0.27,0.09,0.41c0.16-0.21,0.35-0.41,0.48-0.64c0.05-0.08-0.03-0.24-0.07-0.5
		C50.62,127.61,50.44,127.81,50.33,128.04z M22.26,189.75c0.14-0.06,0.32-0.1,0.4-0.2c0.06-0.07,0-0.25-0.01-0.38
		c-0.11,0.07-0.23,0.13-0.34,0.2C22.3,189.5,22.28,189.63,22.26,189.75z M21.33,190.25c-0.06,0.18-0.06,0.38-0.09,0.57
		c0.06-0.02,0.16-0.03,0.19-0.08c0.1-0.15,0.18-0.32,0.31-0.54C21.53,190.22,21.34,190.21,21.33,190.25z M26.74,185.37
		c0.01,0.08,0.02,0.16,0.03,0.23c0.06-0.02,0.14-0.03,0.16-0.07c0.02-0.04-0.03-0.11-0.05-0.17
		C26.83,185.37,26.79,185.37,26.74,185.37z M24.59,187.45c0.08-0.01,0.15-0.02,0.23-0.03c-0.02-0.06-0.04-0.12-0.05-0.18
		c-0.06,0.02-0.12,0.04-0.17,0.06C24.59,187.36,24.59,187.4,24.59,187.45z M19.98,191.09c0.08-0.01,0.16-0.02,0.25-0.03
		c-0.02-0.06-0.04-0.13-0.06-0.19c-0.06,0.02-0.12,0.04-0.19,0.07C19.98,190.98,19.98,191.04,19.98,191.09z M20.95,189.32
		c-0.02,0.09-0.04,0.18-0.06,0.27c0.06-0.02,0.13-0.03,0.18-0.07c0.03-0.02,0.01-0.09,0.01-0.14
		C21.03,189.37,20.99,189.35,20.95,189.32z M48.52,131.89c-0.09-0.02-0.18-0.04-0.27-0.06c0.02,0.06,0.03,0.13,0.07,0.18
		c0.02,0.02,0.09,0.01,0.14,0.01C48.48,131.98,48.5,131.93,48.52,131.89z M48.96,131.11c-0.09-0.02-0.18-0.04-0.26-0.06
		c0.02,0.06,0.03,0.13,0.07,0.17c0.02,0.02,0.09,0.01,0.13,0.01C48.91,131.19,48.93,131.15,48.96,131.11z M12,194.19
		c0.01,0.08,0.02,0.16,0.03,0.24c0.06-0.02,0.12-0.03,0.18-0.05c-0.02-0.06-0.05-0.12-0.07-0.18C12.1,194.2,12.05,194.19,12,194.19z
		 M6.6,185.45c-0.02,0.09-0.05,0.18-0.07,0.28c0.06-0.02,0.13-0.03,0.17-0.07c0.03-0.02,0.01-0.09,0.02-0.14
		C6.67,185.49,6.64,185.47,6.6,185.45z M3.9,178.25c-0.02,0.09-0.05,0.19-0.07,0.28c0.06-0.02,0.13-0.03,0.17-0.07
		c0.03-0.02,0.01-0.09,0.02-0.14C3.97,178.3,3.94,178.27,3.9,178.25z"/>
	<path class="st0" d="M84.54,4.59c0.7,0.82,0.68,1.87,0.45,2.74c-0.41,1.56-1.79,2.71-2.05,4.41c-0.03,0.19-1.02,0.21-1.55,0.36
		c-0.2,0.05-0.36,0.24-0.54,0.36c-0.55,0.36-0.46,0.68,0.05,0.97c0.19,0.11,0.39,0.22,0.58,0.32c-0.41,0.06-0.97,0.31-1.19,0.13
		c-0.65-0.53-0.9-0.31-1.08,0.35c-0.16,0.56-0.28,1.12-0.46,1.67c-0.59,1.79-1.34,3.54-1.6,5.43c-0.03,0.23,0.04,0.47,0.07,0.7
		c0.17-0.23,0.37-0.44,0.51-0.69c0.06-0.11-0.06-0.32,0-0.44c0.68-1.53,0.88-3.37,2.64-4.21c0.6-0.28,1.25-0.48,1.89-0.67
		c1.67-0.5,3.42-0.72,4.93-1.7c0.58-0.37,0.86-0.07,0.9,0.63c0.08,1.31-1,2.21-1.17,3.4c-0.13,0.93-0.99,1.29-1.38,2.01
		c-0.42,0.79-0.74,1.73-1.37,2.31c-0.84,0.77-1.48,2.09-3.05,1.67c-0.31-0.08-0.71,0.2-1.07,0.29c-0.96,0.22-1.93,0.47-2.9,0.61
		c-0.2,0.03-0.46-0.34-0.7-0.53c-0.12,0.34-0.26,0.67-0.35,1.02c-0.19,0.77-0.36,1.55-0.5,2.34c-0.46,2.56-0.9,5.12-1.33,7.68
		c-0.04,0.23,0.02,0.48,0.04,0.72c0.18-0.23,0.54-0.49,0.5-0.67c-0.18-0.84,0.68-1,0.93-1.56c0.73-1.59,2.14-2.34,3.74-2.84
		c1.24-0.39,2.67-0.38,3.55-1.62c0.14-0.19,0.55-0.2,0.84-0.27c0.74-0.18,1.29,0.21,1.09,0.88c-0.42,1.4-0.63,3.06-1.68,3.99
		c-1.03,0.91-1.19,2.44-2.5,3.01c0.4,1.1-0.89,1.17-1.17,1.91c-0.42,1.11-1.6,0.36-2.39,0.69c-0.45,0.19-1.02,0.05-1.51,0.16
		c-1,0.22-2.11,0.31-2.54,1.51l-0.06,0.01c-0.03-0.7-0.02-1.4-0.1-2.09c-0.02-0.2-0.28-0.37-0.43-0.56
		c-0.18,0.16-0.48,0.29-0.53,0.48c-0.18,0.69-0.25,1.41-0.44,2.1c-0.09,0.35-0.35,0.65-0.54,0.98c-0.04-0.25-0.18-0.55-0.09-0.74
		c0.41-0.88,0.18-1.32-0.81-1.31c-0.26-0.89-1.19-0.52-1.73-0.92c-0.59-0.43-1.29-0.7-1.9-1.11c-0.25-0.17-0.37-0.51-0.55-0.78
		l0.09-0.03c0.36,0.03,0.72,0.09,1.08,0.07c0.17-0.01,0.43-0.17,0.47-0.3c0.04-0.14-0.11-0.42-0.25-0.5
		c-0.66-0.4-1.32-0.79-0.97-1.72c0.09-0.23,0.4-0.37,0.6-0.56c0.12,0.22,0.38,0.46,0.34,0.65c-0.11,0.5,0.12,0.54,0.44,0.37
		c0.65-0.34,0.83,0.17,1.16,0.52c0.45,0.49,0.05,0.83-0.16,1.17c-0.59,1.01-0.62,1.03,0.28,1.45c0.27,0.12,0.64,0.04,0.95,0.06
		c0.29-0.01,0.6-0.08,0.86,0c0.86,0.23,0.94-0.25,0.71-0.83c-0.49-1.29-1.07-2.55-1.59-3.83c-0.16-0.38-0.23-0.8-0.31-1.21
		c0.24,0.26,0.55,0.48,0.71,0.78c0.53,0.94,1,1.91,1.5,2.87c0.22,0.41,0.49,0.5,0.83,0.12c0.12,0.01,0.25,0.01,0.37,0.02
		c-0.02-0.08-0.04-0.15-0.07-0.23c-0.1,0.07-0.2,0.15-0.3,0.22c-0.12-2.63,0.9-5.02,1.6-7.47c0.42-1.47,0.72-2.94,0.92-4.45
		c0.06-0.47,0-0.67-0.48-0.74c-2.78-0.38-2.96-0.44-5.26-2.05c-0.33-0.23-0.6-0.64-0.73-1.02c-0.74-2.12-1.44-4.26-2.11-6.41
		c-0.05-0.16,0.22-0.52,0.42-0.62c0.22-0.1,0.78-0.45,0.61,0.35c-0.13,0.63,0.4,0.7,0.81,0.82c1.1,0.33,2.21,0.63,3.32,0.94
		c-1.08,1-2.03-0.2-3.05-0.18c-0.2,0-0.41-0.14-0.61-0.21c0,0.25-0.06,0.52,0,0.75c0.44,1.59,0.89,3.17,1.36,4.75
		c0.03,0.09,0.18,0.15,0.27,0.23c0.08-0.11,0.23-0.22,0.24-0.34c0.02-0.34-0.16-0.76,0.42-0.79c0.62-0.03,0.65-0.4,0.61-0.89
		c-0.01-0.11,0.32-0.35,0.47-0.34c0.16,0.01,0.44,0.31,0.41,0.41c-0.22,0.72,0.05,0.78,0.72,0.94c0.43,0.1,0.79,0.94,0.97,1.51
		c0.34,1.07,0.52,1.33,1.48,1.33c0.14,0,0.3-0.07,0.4-0.17c0.04-0.04-0.01-0.27-0.08-0.32c-1.28-0.87-1.21-2.36-1.48-3.6
		c-0.2-0.93-0.47-1.59-1.25-2.1c-0.35-0.23-0.56-0.65-0.84-0.98c0.18-0.07,0.46-0.25,0.52-0.19c0.26,0.24,0.39,0.68,0.67,0.82
		c1.66,0.8,2.23,2.18,2.27,3.91c0,0.16,0.19,0.32,0.29,0.48c0.13-0.17,0.36-0.32,0.39-0.5c0.28-1.82,1.1-3.48,1.89-5.08
		c0.68-1.38,0.69-2.64,0.42-4.01c-0.1-0.51-0.32-1-0.4-1.52c-0.37-2.3-0.5-4.5,1.71-6.14c0.49-0.37,0.79-0.95,1.46-1.25
		c0.61-0.27,1.06-0.93,1.58-1.42c0.42-0.39,0.83-0.81,1.27-1.17c0.13-0.1,0.38-0.06,0.57-0.08c0.02,0.26,0.1,0.52,0.06,0.77
		c-0.04,0.21-0.21,0.39-0.33,0.58c-0.44,0.18-0.87,0.41-1.33,0.55c-0.91,0.27-1.13,0.82-0.87,1.69c0.11,0.37,0.19,1.11,0.13,1.13
		c-0.7,0.19-0.12,0.77-0.38,1.1c-0.28,0.34-0.5,0.75-0.65,1.16c-0.14,0.39-0.12,0.84-0.25,1.24c-0.04,0.13-0.32,0.22-0.5,0.27
		c-0.44,0.12-0.89,0.21-1.33,0.32c0.11-0.8,0.21-1.6,0.32-2.41c0.23-0.11,0.59-0.17,0.67-0.36c0.2-0.44,0.23-0.97,0.43-1.41
		c0.12-0.27,0.98-0.15,0.44-0.77c-0.03-0.04-0.8,0.36-0.97,0.69c-0.29,0.56-0.39,1.22-0.57,1.84c-1.36,0.77-1.42,1.28-0.3,2.41
		c0.29,0.84,0.6,1.67,0.87,2.51c0.16,0.49,0.15,0.76,0.77,0.24c1.54-1.28,3.04-2.53,3.28-4.7c0.83-0.61-0.15-1.6,0.49-2.25
		L84.54,4.59z M77.85,37.07c-0.47-0.28-0.65,0.05-0.68,0.47c-0.03,0.36-0.03,0.71-0.04,1.07c0.34-0.13,0.71-0.19,1-0.39
		c0.67-0.47,1.58-0.84,1.12-1.96c0.01-0.12,0.01-0.25,0.02-0.37c-0.08,0.02-0.15,0.04-0.23,0.07c0.07,0.1,0.14,0.2,0.22,0.3
		C78.91,36.73,78.85,37.67,77.85,37.07z M78.08,21.74c-0.12,0.32-0.5,0.72,0.04,0.91c0.29,0.1,0.8-0.01,1.02-0.23
		c0.3-0.29,0.45-0.75,0.6-1.17c0.15-0.4,0.16-0.86,0.33-1.25c0.1-0.24,0.22-0.83,0.69-0.19c0.23,0.31,1.21-0.73,1.09,0.53
		c-0.02,0.22,0.04,0.46,0.07,0.68c0.14-0.17,0.32-0.31,0.4-0.5c0.13-0.33,0.28-0.69,0.28-1.03c0-0.98,0.74-1.38,1.38-1.85
		c0.09-0.07,0.23-0.07,0.35-0.11c-0.01,0.14,0.02,0.3-0.02,0.43c-0.28,0.83-0.58,1.64-0.85,2.47c-0.05,0.15,0.03,0.34,0.04,0.51
		c0.21-0.06,0.52-0.05,0.63-0.19c0.62-0.78,1.27-1.55,1.77-2.41c0.48-0.82,0.8-1.74,1.17-2.62c0.01-0.03-0.32-0.28-0.36-0.25
		c-1.46,1.02-3.19,1.07-4.85,1.37c-1.12,0.2-2.13,0.68-2.6,1.85C78.87,19.69,78.47,20.71,78.08,21.74z M83.28,31.22
		c-0.05-0.24-0.08-0.66-0.5-0.3c-1.12,0.94-2.38,1.43-3.86,1.34c-0.2-0.01-0.47,0.1-0.61,0.25c-0.8,0.84-1.68,1.63-2.3,2.59
		c-0.59,0.89-0.91,1.96-1.29,2.97c-0.03,0.07,0.41,0.47,0.57,0.43c0.33-0.07,0.69-0.27,0.91-0.53c0.29-0.33,0.45-0.77,0.67-1.17
		c0.26-0.46,0.51-0.92,0.77-1.37c0.46-0.8,0.54,0.36,0.84,0.16c0.17-0.11,0.26-0.34,0.39-0.52c0.49-0.68,0.51-0.69,0.9,0.08
		c0.17,0.34,0.28,0.53,0.54,0.11c0.24-0.38,0.44-0.79,0.68-1.16c0.07-0.11,0.24-0.14,0.37-0.21c0.01,0.14,0.06,0.3,0.02,0.42
		c-0.07,0.21-0.22,0.39-0.3,0.6c-0.08,0.2-0.11,0.42-0.16,0.62c0.16-0.11,0.35-0.19,0.46-0.33c0.38-0.47,0.74-0.97,1.11-1.45
		C83.17,33.03,83.5,32.22,83.28,31.22z M78.18,24.09c0.28,0.05,0.59,0.13,0.86,0.06c0.48-0.11,0.94-0.31,1.42-0.48
		c-0.39-0.67-0.9-0.18-1.36-0.14c-0.28,0.02-0.58-0.04-0.86,0c-0.1,0.01-0.19,0.2-0.28,0.31C78.03,23.93,78.09,24.08,78.18,24.09z
		 M82.3,23.01c-0.24-0.06-0.51,0.01-0.77,0.03c0.03,0.19,0.04,0.53,0.08,0.54c0.35,0.03,0.7-0.01,1.22-0.03
		C82.58,23.26,82.46,23.04,82.3,23.01z M71.15,21.26c0.01,0.23,0.03,0.47,0.11,0.68c0.02,0.05,0.24,0.04,0.37,0.05
		c-0.04-0.27-0.09-0.53-0.14-0.81C71.34,21.21,71.15,21.24,71.15,21.26z M79.78,37.74c-0.11,0.04-0.27,0.04-0.32,0.11
		c-0.07,0.11-0.05,0.27-0.07,0.4c0.1-0.04,0.21-0.07,0.31-0.11C79.73,38.01,79.76,37.87,79.78,37.74z M73.97,39.35
		c-0.05,0.17-0.06,0.36-0.09,0.55c0.06-0.02,0.15-0.03,0.18-0.08c0.1-0.14,0.18-0.3,0.3-0.52C74.16,39.32,73.98,39.31,73.97,39.35z
		 M82.93,22.74c0.11-0.07,0.28-0.11,0.31-0.21c0.04-0.12-0.02-0.29-0.04-0.43c-0.1,0.08-0.2,0.17-0.3,0.25
		C82.91,22.48,82.92,22.61,82.93,22.74z M73.1,37.57c-0.11,0.06-0.29,0.11-0.32,0.19c-0.04,0.13,0.03,0.29,0.06,0.44
		c0.09-0.09,0.19-0.17,0.28-0.26C73.11,37.81,73.11,37.69,73.1,37.57z M81.27,21.98c-0.11,0.06-0.29,0.11-0.31,0.2
		c-0.04,0.12,0.03,0.28,0.06,0.43c0.09-0.09,0.19-0.17,0.28-0.26C81.28,22.22,81.28,22.1,81.27,21.98z M72.34,21.9
		c-0.06,0.18-0.07,0.37-0.1,0.55c0.06-0.02,0.16-0.02,0.19-0.07c0.1-0.14,0.18-0.3,0.3-0.53C72.52,21.88,72.35,21.86,72.34,21.9z
		 M78.64,38.65c-0.02,0.09-0.05,0.18-0.07,0.27c0.06-0.02,0.12-0.03,0.17-0.07c0.03-0.02,0.01-0.09,0.02-0.14
		C78.71,38.69,78.67,38.67,78.64,38.65z"/>
	<path class="st0" d="M70.04,77.85c-0.34,0.72-0.68,1.43-1.02,2.15c0.05,0.01,0.13,0.05,0.14,0.03c0.53-0.86,1.49-1.55,1.18-2.77
		c0.65-0.85,1.18-1.85,1.98-2.52c0.74-0.63,1.14-1.04,0.38-1.88c-0.42-0.46,0.06-0.82,0.25-1.17c0.34-0.63,0.53-1.21-0.05-1.78
		c-0.03-1.44,0.02-2.89-0.11-4.32c-0.1-1.05,0.08-2.22-0.78-3.1c0.33-1.14-0.12-2.2-0.32-3.29c-0.07-0.4,0.08-0.83,0.14-1.25
		c0.33,1.29,0.65,2.59,1.02,3.87c0.05,0.19,0.38,0.29,0.58,0.43c0.08-0.19,0.26-0.4,0.22-0.56c-0.31-1.44-0.66-2.88-1-4.31
		c0.2-0.06,0.41-0.12,0.62-0.18c0.2,0.2,0.55,0.37,0.59,0.6c0.2,1.3,0.54,2.63,0.42,3.92c-0.09,0.97,0.81,1.86,0.09,2.8l-0.04,0.01
		c-0.12-0.01-0.24-0.02-0.36-0.03c0.05,0.14,0.1,0.27,0.16,0.43c0.03,0.14,0.05,0.29,0.08,0.43c0.09-0.07,0.19-0.14,0.28-0.21
		l0.06-0.02c0.31,1.28,0.6,2.55,0.93,3.82c0.05,0.18,0.23,0.42,0.39,0.46c0.13,0.04,0.42-0.13,0.5-0.28
		c1.12-2.17,2.56-4.08,4.25-5.85c0.98-1.02,1.29-2.66,2.87-3.16c1.15-2.14,2.77-3.94,4.27-5.82c0.59-0.74,1.17-1.48,1.75-2.22
		c0.84-1.1,1.63-2.25,2.52-3.31c1.77-2.1,3.61-4.15,5.4-6.24c1.09-1.27,2.07-2.62,3.23-3.81c0.34-0.35,0.96-1.08,1.72-0.41
		c-0.65,0.56-1.31,1.11-1.93,1.71c-0.11,0.11-0.03,0.42-0.03,0.64c0.21,0,0.43,0,0.65,0.03c-0.12,0.19-0.21,0.42-0.38,0.55
		c-1.97,1.47-3.87,3.03-5.33,5.04c-0.12-0.01-0.24-0.01-0.36-0.02c0.05,0.14,0.09,0.28,0.14,0.41c-0.34,0.47-0.81,1.39-1,1.34
		c-1.15-0.33-0.58,0.72-0.88,1.03c-2.2,2.21-4.18,4.61-6,7.15c-0.68,0.95-1.42,1.84-2.16,2.74c-0.87,1.06-1.94,2-2.6,3.17
		c-0.84,1.5-2.27,2.48-3.05,4.04c-0.6,1.2-1.74,2.11-2.57,3.21c-0.24,0.31-0.23,0.82-0.32,1.24c-0.12,0.57-0.34,1.15-0.29,1.71
		c0.11,1.28-0.82,1.86-1.67,1.85c-1.01-0.01-1.55,0.62-1.9,1.12c-0.51,0.73-1.09,1.43-1.5,2.26c-0.83,1.68-1.79,3.3-2.73,4.91
		c-0.15,0.25-0.52,0.37-0.79,0.54c0.07-0.13,0.15-0.25,0.21-0.38c0.23-0.52,0.45-1.04,0.67-1.56c-0.05-0.01-0.12-0.04-0.14-0.03
		c-0.48,0.57-1.14,1.07-0.75,1.97c-0.5,0.6-1,1.21-1.51,1.81c0.5,0.9-0.69,1.19-0.73,2.02c-0.04,0.8-0.78,1.57-1.21,2.35
		c-0.51,0.91-0.81,2.12-1.58,2.65c-0.91,0.62-0.54,1.94-1.64,2.3c-0.18,0.06-0.26,0.5-0.34,0.77c-0.61,1.94-1.24,3.87-2.26,5.65
		c-0.07-0.19-0.22-0.4-0.18-0.57c0.53-2.14,1.59-4.07,2.35-6.12c0.28-0.75,1-1.32,0.85-2.26c-0.04-0.23,0.2-0.66,0.4-0.73
		c0.91-0.33,1.08-1.21,1.47-1.89c2.03-3.59,4.01-7.22,6.04-10.81c0.22-0.39,0.24-1.12,1.03-0.91
		C70.25,77.46,70.13,77.65,70.04,77.85z M74.43,67.15c-0.01,0.12-0.02,0.24-0.02,0.36c0.08-0.02,0.15-0.03,0.23-0.05
		C74.57,67.36,74.5,67.25,74.43,67.15c-0.06-0.2-0.12-0.41-0.18-0.61c0.01-0.13,0.02-0.25,0.03-0.38c-0.08,0.02-0.16,0.04-0.24,0.06
		c0.07,0.1,0.15,0.21,0.22,0.31C74.32,66.74,74.38,66.94,74.43,67.15z M74.4,73.03c0.03,0.11,0.03,0.28,0.1,0.32
		c0.11,0.06,0.27,0.04,0.4,0.05c-0.03-0.11-0.06-0.22-0.09-0.32C74.68,73.06,74.54,73.04,74.4,73.03z M73.57,72.72
		c0.08-0.01,0.16-0.02,0.23-0.03c-0.02-0.06-0.03-0.12-0.05-0.18c-0.06,0.02-0.12,0.05-0.18,0.07
		C73.58,72.63,73.57,72.67,73.57,72.72z M73.62,63.51c0.05,0.02,0.14-0.03,0.2-0.05c-0.02-0.07-0.05-0.14-0.07-0.21
		c-0.07,0.03-0.14,0.05-0.21,0.08C73.56,63.38,73.57,63.49,73.62,63.51z"/>
	<path class="st0" d="M71.37,48.5c0.07-0.04,0.06-0.24,0.09-0.37c-0.14,0.04-0.3,0.05-0.41,0.14c-0.1,0.08-0.15,0.23-0.23,0.35
		c-0.27-1.36-0.69-2.73,0.18-4.04c0.13,0.07,0.27,0.15,0.4,0.22c-0.01,0.12-0.02,0.25-0.03,0.37c0.08-0.02,0.15-0.04,0.23-0.07
		c-0.07-0.1-0.14-0.2-0.21-0.3c0.11-0.08,0.21-0.2,0.33-0.25c0.2-0.07,0.41-0.09,0.62-0.14c0.01,0.18,0.06,0.37,0.01,0.52
		c-0.09,0.27-0.38,0.53-0.35,0.76c0.05,0.28,0.34,0.51,0.53,0.77c-0.01,0.13-0.01,0.26-0.02,0.38c0.08-0.03,0.15-0.05,0.23-0.08
		c-0.07-0.1-0.14-0.2-0.22-0.3c0.36-1.02,0.59-2.03,0.34-3.15c-0.11-0.51,0.16-1.11,0.25-1.66l0.06-0.01
		c0.13,0.34,0.36,0.67,0.37,1.01c0.03,1.6,0,3.2-0.01,4.79c0,0.16,0.06,0.31,0.09,0.47c0.14-0.16,0.38-0.32,0.39-0.49
		c0.1-0.97,0.26-1.92,1.13-2.5c1.28-0.85,2.44-1.88,4.04-2.21c1.29-0.27,2.57-0.71,3.28-2.01c0.08-0.14,0.38-0.28,0.5-0.24
		c0.15,0.06,0.34,0.33,0.32,0.48c-0.08,0.57-0.19,1.13-0.37,1.68c-0.41,1.24-0.96,2.44-1.28,3.71c-0.26,1.04-0.42,1.98-1.81,1.98
		c-0.3,0-0.65,0.34-0.9,0.6c-1.3,1.33-2.77,2.05-4.67,1.51c-0.41-0.12-0.79-0.28-0.7,0.52c0.12,1.07,0.04,2.17-0.02,3.25
		c-0.05,1-0.19,2-0.3,3.01c-0.2,0.06-0.41,0.12-0.61,0.17c-0.19-0.28-0.38-0.56-0.57-0.83c0.67-0.67,1.12-1.36,0.84-2.43
		c-0.18-0.67,0.26-1.79-0.1-2.08c-0.67-0.55,0.65-1.17-0.24-1.45c0.13-0.26,0.31-0.51,0.38-0.78c0.07-0.27,0.04-0.57,0.05-0.86
		c-0.19,0.16-0.37,0.35-0.58,0.46c-1.29,0.68-1.28,1.79-1.03,2.99c0.12,0.57,0.45,1.13-0.04,1.7c-0.23-0.43-0.6-1.24-0.66-1.22
		c-1.04,0.4-1.63-0.57-2.47-0.76c-1.5-0.32-2.99-0.71-4.29-1.62c-0.41-0.29-0.93-0.63-1.39-0.62c-0.91,0.01-0.64-0.59-0.71-1.04
		l0.15-0.04c0.81,0.46,0.81,0.45,2.61-0.14c0.22-0.07,0.49,0.05,0.74,0.08c-0.08,0.27-0.16,0.54-0.24,0.81
		c-0.07-0.01-0.15-0.05-0.22-0.04c-0.28,0.08-0.56,0.18-0.83,0.27c0.09,0.11,0.15,0.26,0.27,0.31c0.53,0.26,0.56-0.3,0.79-0.52
		c0.26,0.14,0.52,0.28,0.78,0.42c-0.01,0.12-0.02,0.25-0.03,0.37c0.14-0.05,0.29-0.09,0.43-0.14c0.38,0.21,0.76,0.44,1.15,0.62
		c0.82,0.39,1.5,0.25,2.1-0.42c0.07-0.08,0.07-0.34,0-0.43c-0.3-0.38-0.65-0.74-0.97-1.09c0.17-1.47-1.14-2.1-1.88-2.97
		c-0.36-0.42-1.49-0.37-2.22-0.23c-1.16,0.21-2.28,0.67-3.42,1.02l-0.12,0.03c-0.42-0.07-0.85-0.11-1.26-0.23
		c-0.12-0.04-0.29-0.39-0.25-0.44c0.27-0.33,0.56-0.71,0.93-0.87c0.26-0.11,0.67,0.08,0.99,0.19c0.7,0.24,1.37,0.44,2.04-0.09
		c0.94-0.75,2.18-0.51,2.95-0.13c1.51,0.76,3.82,1.02,3.47,3.66c-0.03,0.22,0.29,0.49,0.46,0.72c0.07,0.09,0.18,0.15,0.27,0.23
		c0.09-0.18,0.21-0.36,0.26-0.55c0.05-0.21,0.01-0.43,0.02-0.65C71.01,48.57,71.21,48.58,71.37,48.5z M76.47,49.34
		c-0.07-0.09-0.14-0.19-0.22-0.28c0.27-0.04,0.1-1.15,0.81-0.28c0.3,0.37,0.73,0.06,0.52-0.5c-0.25-0.66,0.38-0.43,0.51-0.68
		c0.15-0.3,0.36-0.44,0.56-0.01c0.19,0.4,0.41,0.49,0.85,0.22c1-0.63,1.55-1.52,1.76-2.65c0.11-0.56,0.13-1.14,0.23-1.71
		c0.06-0.35,0.18-0.69,0.28-1.03c-0.34,0.13-0.67,0.26-1.01,0.39c-1.43,0.55-2.87,1.08-4.11,2c-0.4,0.29-0.76,0.63-1.16,0.91
		c-0.34,0.23-1.02,0.32-0.67,0.88c0.23,0.37,0.43,1.23,1.29,0.67c0.3-0.2,0.58-0.05,0.38,0.39c-0.19,0.4-0.43,0.79-0.64,1.18
		c-0.2,0-0.41-0.03-0.6,0.02c-0.16,0.05-0.28,0.2-0.42,0.3c0.09,0.1,0.18,0.26,0.28,0.27c0.3,0.04,0.61,0.01,0.91,0.01
		C76.18,49.41,76.33,49.37,76.47,49.34z"/>
	<path class="st0" d="M97.86,49.22c1.52-1.93,3.07-3.85,4.56-5.81c0.43-0.56,0.75-1.22,1.02-1.88c0.07-0.16-0.19-0.55-0.4-0.7
		c-0.09-0.07-0.51,0.15-0.64,0.34c-0.38,0.55-0.59,1.24-1.04,1.72c-1.6,1.72-3.02,3.56-4.13,5.62c-0.11,0.2-0.21,0.4-0.34,0.58
		c-0.08,0.11-0.21,0.18-0.32,0.27c-0.02-0.17-0.09-0.36-0.04-0.5c0.92-2.29,2.77-3.99,3.95-6.12c0.06-0.11,0.3-0.1,0.39-0.21
		c0.55-0.71,1.39-1.3,1.05-2.4l-0.01-0.04c0.13-0.6,1.06-0.98,0.49-1.78c0.12-0.19,0.27-0.54,0.36-0.53
		c0.28,0.05,0.59,0.18,0.79,0.38c0.21,0.21,0.23,0.68,0.46,0.79c0.27,0.13,0.98,0.14,0.73,0.39c-0.85,0.86,0.59,1.12,0.38,1.79
		c-0.02,0.06,0.97,0.26,0.77,0.87c-0.14,0.42,0.31,1.08-0.44,1.28c0.3,1.14-1.03,1.57-1.11,2.55c-1.4,0.22-0.45,2.15-1.76,2.42
		c-1.15,1.43-2.03,3.06-3.13,4.5c-1.37,1.78-2.76,3.54-3.99,5.43c-0.87,1.34-1.85,2.61-2.8,3.9c-0.05,0.06-0.27,0-0.4,0.01
		c0.67-1.84,2.27-3.07,3.16-4.76c1-1.9,2.71-3.32,3.52-5.34c0.05-0.12,0.21-0.19,0.3-0.31c1.32-1.87,3.23-3.36,3.6-5.82
		c0.04-0.29,0.08-0.58,0.12-0.87c-0.27,0.11-0.61,0.15-0.79,0.35c-0.59,0.63-1.07,1.37-1.68,1.98c-0.95,0.94-1.7,2-2.3,3.19
		c-0.04,0.07-0.23,0.07-0.34,0.11c0.01-0.14,0.02-0.28,0.02-0.42C97.84,49.87,97.85,49.54,97.86,49.22L97.86,49.22z M104.59,43.02
		c0.08-0.01,0.16-0.02,0.24-0.02c-0.02-0.06-0.04-0.12-0.06-0.18c-0.06,0.02-0.12,0.04-0.18,0.06
		C104.59,42.92,104.59,42.97,104.59,43.02z"/>
	<path class="st0" d="M49.65,137.53c0.3,1.24-0.65,1.94-1.22,2.8c-0.07,0.11-0.32,0.11-0.38,0.21c-1.38,2.44-3.42,4.45-4.51,7.06
		c-0.06,0.14,0.11,0.37,0.18,0.56c-0.47,1.2-1.36,2.08-2.17,3.03c-1.23,1.44-2.34,2.98-3.63,4.36c-1.77,1.89-3.66,3.67-5.51,5.48
		c-0.12,0.12-0.38,0.1-0.58,0.13c0.5-1.18,1.49-1.98,2.38-2.79c1.05-0.95,1.95-1.96,2.53-3.25c0.18-0.03,0.38-0.03,0.54-0.12
		c0.08-0.04,0.07-0.24,0.1-0.37c-0.14,0.05-0.3,0.07-0.41,0.15c-0.1,0.08-0.15,0.23-0.23,0.35c-0.19,0.05-0.48,0.04-0.56,0.16
		c-1.51,2.22-3.72,3.75-5.55,5.66c-0.02,0.02-0.14-0.04-0.21-0.05c0.68-1.5,1.9-2.68,3.13-3.55c1.82-1.3,2.55-3.34,4.06-4.81
		c0.93-0.9,1.56-2.1,2.39-3.1c0.68-0.82,1.51-1.53,2.2-2.35c0.71-0.83,1.44-1.67,1.96-2.61c0.5-0.92,1.34-1.61,1.62-2.71
		c0.14-0.56,0.73-1.16,1.26-1.42C48.35,139.75,49.11,138.76,49.65,137.53L49.65,137.53z M37.84,153.26
		c-0.01,0.16,0.14,0.37,0.28,0.49c0.06,0.06,0.33,0.02,0.38-0.05c1.04-1.49,2.07-2.99,3.09-4.48c0.04-0.06,0.1-0.13,0.1-0.2
		c0-0.13-0.04-0.25-0.06-0.38c-0.07,0.03-0.16,0.04-0.2,0.09c-1.11,1.3-2.22,2.61-3.15,3.71C38.03,152.87,37.85,153.06,37.84,153.26
		z M42.94,147.3c-0.19,0.17-0.41,0.32-0.55,0.53c-0.07,0.11,0.01,0.32,0.02,0.48c0.16-0.12,0.31-0.25,0.48-0.38
		C42.91,147.7,42.92,147.5,42.94,147.3z"/>
	<path class="st0" d="M71.93,95.71c0.27-0.34,0.52-0.69,0.8-1.02c0.23-0.27,0.59-0.47,0.73-0.78c0.47-1.07,0.87-2.17,1.3-3.25
		c0.44-1.08,1.31-1.93,1.4-3.23c0.09-1.22,1.55-1.86,1.74-3.14c0.95-0.37,1.1-1.36,1.57-2.09c1.21-1.86,1.92-4.02,3.6-5.59
		c0.31-0.29,0.46-0.77,0.66-1.17c0.06-0.12,0.01-0.28,0.02-0.42c-0.12,0.05-0.29,0.08-0.35,0.17c-0.18,0.24-0.3,0.52-0.46,0.77
		c-0.11,0.17-0.11,0.15-0.37-0.27c-0.07-0.11-0.33-0.23-0.33-0.23c-0.83,1.12-1.66,2.23-2.44,3.38c-1.12,1.64-2.25,3.29-3.29,4.98
		c-0.34,0.55-0.97-0.95-1.08,0.25c-0.05,0.49-0.21,0.99-0.41,1.45c-0.24,0.55-0.62,1.03-0.84,1.59c-0.19,0.46-0.25,0.98-0.34,1.47
		c-0.1,0.6-1.07,0.98-0.44,1.76c0.1-0.07,0.19-0.14,0.29-0.22c0.02,0.07,0.05,0.15,0.07,0.22c-0.12-0.01-0.24-0.01-0.36-0.02
		c0.13,0.86-0.8,1.3-0.79,2.2c0.01,0.81-0.51,1.62-0.75,2.44C71.79,95.19,71.91,95.46,71.93,95.71L71.93,95.71z"/>
	<path class="st0" d="M92.02,124.87c0.08-0.02,0.16-0.04,0.24-0.06c-0.07-0.1-0.15-0.21-0.22-0.31c1.41-0.96,3.09-1.49,4.36-2.68
		c0.03-0.03,0.14,0.04,0.21,0.05c0.03,0.15,0.06,0.3,0.1,0.45c0.1-0.07,0.2-0.15,0.3-0.22c0.13,0.07,0.26,0.14,0.39,0.2l0.01,0.03
		c-0.27,0.34-0.46,0.81-0.81,1c-1.76,1-3.55,1.95-5.35,2.86c-0.35,0.18-1.1-0.01-1.2,0.2c-0.73,1.57-2.07,1.38-3.39,1.3
		c0.01-0.12,0.02-0.25,0.04-0.37c-0.14,0.05-0.29,0.1-0.43,0.15c-0.34-0.07-0.67-0.17-1.01-0.18c-0.13,0-0.26,0.21-0.39,0.33
		c0.18,0.08,0.36,0.19,0.55,0.22c0.2,0.04,0.42,0.01,0.63,0.04c-0.85,0.96-1.6,2.08-3.17,1.73c-0.11-0.03-0.27,0.09-0.39,0.16
		c-0.85,0.53-0.85,0.52-1.41,0.02c-0.16-0.14-0.37-0.24-0.55-0.35c0.07-0.13,0.14-0.27,0.22-0.4c0.26,0.08,0.51,0.21,0.77,0.21
		c0.09,0,0.19-0.3,0.28-0.46c-0.11-0.03-0.23-0.11-0.32-0.08c-0.25,0.09-0.49,0.23-0.73,0.35c-0.2,0.06-0.41,0.11-0.62,0.17
		c-0.2,0.06-0.4,0.11-0.62,0.18c-0.41,0.12-0.82,0.23-1.22,0.34c-0.21,0.06-0.42,0.12-0.61,0.17c-1.06-0.49-1.96,0.01-2.85,0.48
		c-0.19-0.28-0.38-0.55-0.58-0.83c0.19-0.11,0.37-0.3,0.56-0.31c2.82-0.14,5.49-0.98,8.17-1.71c1.78-0.49,3.5-1.22,5.26-1.79
		c1.27-0.41,2.63-0.55,3.8-1.24C92.04,124.61,92.03,124.74,92.02,124.87z M82.78,128.79c-0.09-0.02-0.17-0.04-0.26-0.05
		c0.02,0.06,0.03,0.12,0.07,0.17c0.02,0.02,0.09,0.01,0.14,0.01C82.74,128.87,82.76,128.83,82.78,128.79z"/>
	<path class="st0" d="M102.84,122.8c0.42-0.29,0.85-0.57,1.25-0.87c0.07-0.05,0.06-0.33,0.08-0.33c2.03,0.14,2.91-1.91,4.6-2.44
		c0.36-0.11,0.76-0.81,0.74-1.23c-0.02-0.85,0.64-1.03,1.06-1.06c0.7-0.05,1.09,0.64,0.93,1.23c-0.22,0.82,0.26,0.59,0.65,0.63
		c0.12,0.01,0.21,0.18,0.32,0.27c-0.08,0.09-0.15,0.2-0.25,0.26c-1.05,0.64-2.12,1.23-3.13,1.91c-0.34,0.23-0.53,0.67-0.79,1.02
		c1.02,0.15,1.37-1.38,2.5-0.98c-0.65,0.62-1.32,1.21-1.93,1.86c-0.29,0.31-0.44,0.75-0.66,1.13c1-0.39,1.83-0.99,2.65-1.7
		c0.45-0.39,1.24-0.38,1.57-1.16c0.52-1.23,0.96-2.35,0-3.61c-0.66-0.87-0.91-1.19-1.6-1.4c-0.4-0.12-0.63-0.12-0.97,0.17
		c-0.49,0.42-1.1,0.7-1.61,1.11c-0.9,0.73-1.87,1.05-3.02,0.81c-0.2,0.06-0.41,0.11-0.61,0.17c-0.14,0.05-0.29,0.1-0.43,0.15
		c0.01-0.12,0.03-0.24,0.04-0.36c-0.13-0.07-0.27-0.14-0.41-0.22c-0.28,0.63-0.75,0.9-1.45,0.74c-0.28,0.62-0.77,0.85-1.44,0.74
		c-0.28,0.19-0.56,0.38-0.84,0.57c-0.21,0.06-0.41,0.12-0.62,0.17c-0.34,0.69-0.73,1.31-1.66,1.14c-0.15,0.26-0.3,0.52-0.45,0.77
		l0.01,0.03c0.96,0.16,1.64-0.45,2.39-0.86c0.95-0.51,1.9-1.05,2.89-1.46c0.91-0.38,1.95-0.33,2.85-0.78
		c0.09-0.04,0.26,0.08,0.4,0.12c-0.07,0.14-0.11,0.38-0.21,0.41c-0.5,0.15-1,0.28-1.19,0.86c0.13,0.07,0.27,0.15,0.4,0.22
		c0.1-0.07,0.2-0.15,0.3-0.22c0.02,0.08,0.04,0.15,0.07,0.23c-0.12-0.01-0.25-0.01-0.37-0.02c-0.1,0.07-0.19,0.15-0.29,0.22
		c-0.03-0.15-0.06-0.29-0.09-0.44c-0.79,0.04-1.28,0.51-1.67,1.14c0.48,0.35,0.1,0.65-0.06,0.96L102.84,122.8z"/>
	<path class="st0" d="M94.31,51.89c-0.14,0-0.36-0.06-0.41,0c-1.03,1.43-1.9,3.01-3.09,4.27c-1.42,1.51-2.15,3.47-3.63,4.94
		c-0.82,0.82-2.08,1.07-2.58,2.27c-0.21,0.51-0.82,0.85-1.07,1.36c-1.11,2.28-3.04,3.92-4.54,5.89c-0.22,0.28-0.55,0.48-0.75,0.78
		c-1.11,1.65-2.18,3.34-3.3,4.98c-0.49,0.72-1.09,1.36-1.62,2.05c-0.07,0.09,0,0.28,0.01,0.42c0.12-0.07,0.28-0.12,0.37-0.22
		c0.56-0.66,1.09-1.36,1.67-2.01c1.11-1.25,1.94-2.72,3.12-3.93c0.96-0.99,1.66-2.23,2.48-3.35c0.73-1.01,1.53-1.97,2.18-3.02
		c0.62-1.01,1.35-1.91,2.05-2.85c0.64-0.86,2.08-0.71,2.23-2c1.4-0.9,1.86-2.58,3.04-3.69c0.89-0.84,1.53-1.95,2.3-2.92
		c0.05-0.07,0.27-0.01,0.41-0.01c0.21-0.39,0.43-0.79,0.65-1.18C93.24,52.88,94.18,52.49,94.31,51.89L94.31,51.89z"/>
	<path class="st0" d="M28.36,161.81c0.4-0.42,0.81-0.82,1.17-1.26c0.1-0.13,0.12-0.47,0.02-0.57c-0.1-0.12-0.47-0.17-0.57-0.08
		c-0.59,0.54-1.14,1.11-1.69,1.69c-2.64,2.78-5.65,5.12-8.85,7.23c-0.59,0.39-1.05,0.98-1.54,1.5c-0.08,0.08-0.04,0.27-0.05,0.42
		c0.11-0.01,0.29,0.03,0.34-0.03c1.24-1.49,3.07-2.18,4.52-3.4c0.17-0.14,0.39-0.21,0.57-0.33c0.29-0.2,0.56-0.43,0.84-0.64
		c-0.18,0.4-0.28,0.88-0.57,1.17c-0.56,0.56-1.22,1.02-1.85,1.51c-0.28,0.23-0.61,0.4-0.86,0.66c-0.13,0.14-0.11,0.4-0.17,0.61
		c0.28,0.02,0.55,0.03,0.83,0.05c1.22-1.5,2.79-2.66,4.14-4.04c1.05-1.07,2.46-1.82,3.05-3.31c-0.28-0.72-0.11-1.03,0.67-1.18
		L28.36,161.81z"/>
	<path class="st0" d="M80.82,136.3c-0.21,0.06-0.42,0.12-0.61,0.17c-0.63,0.24-1.27,0.45-1.86,0.76c-0.11,0.06-0.02,0.51-0.03,0.78
		c-0.47-0.09-0.94-0.18-1.41-0.27c0.01-0.13,0.01-0.25,0.02-0.38c-0.08,0.02-0.15,0.05-0.23,0.07c0.07,0.1,0.15,0.21,0.22,0.31
		c-1.03,0.29-2.05,0.58-3.07,0.87c-0.38-0.56-0.76-1.11-1.14-1.66c0.19-0.07,0.38-0.18,0.57-0.19c1.32-0.05,2.71,0.01,3.87-0.64
		c2.61-1.46,5.39-2.29,8.33-2.64c0.11-0.01,0.23,0.07,0.34,0.1c-0.1,0.18-0.15,0.45-0.3,0.52c-0.41,0.18-0.9,0.2-1.27,0.42
		c-1.11,0.67-2.55,0.7-3.45,1.78L80.82,136.3z M75.1,137.62c0.08-0.01,0.16-0.02,0.24-0.03c-0.02-0.06-0.04-0.12-0.05-0.18
		c-0.06,0.02-0.12,0.04-0.18,0.06C75.1,137.53,75.1,137.57,75.1,137.62z"/>
	<path class="st0" d="M43.73,148.16c0.2-0.04,0.5-0.02,0.57-0.14c0.84-1.47,2.19-2.55,3.11-3.89c1.24-1.81,2.74-3.41,3.98-5.19
		c0.81-1.16,1.33-2.63,1.57-4.03c0.2-1.18,1.38-2,1.02-3.3c-0.05-0.19-0.13-0.38-0.2-0.56c-0.45,0.42-0.28,1.43-1.27,1.36
		c-0.21,0.39-0.43,0.79-0.65,1.19c0.52,0.43-0.22,0.92-0.07,1.13c0.76,1.05-0.01,1.76-0.45,2.55c-0.29,0.51-0.55,1.33-0.96,1.42
		c-0.92,0.21-0.53,1.04-0.96,1.49c-1.1,1.14-2.13,2.38-2.86,3.82C45.79,145.51,44.26,146.5,43.73,148.16L43.73,148.16z"/>
	<path class="st0" d="M60.93,107.13c-1.01,1.55-1.08,3.4-1.64,5.1c-0.58,1.74-0.82,3.6-1.23,5.4c-0.08,0.35-0.25,0.68-0.44,1
		c-0.22,0.37-0.5,0.7-0.75,1.05c-0.36-0.55,0.29-0.82,0.33-1.25c0.02-0.18-0.12-0.37-0.19-0.56c-0.58,0.85-1.09,1.78-1.02,2.8
		c0.06,0.93-0.9,1.63-0.43,2.59c0.92-0.15,0.64-1,0.81-1.52c0.41-1.27,0.43-1.4,1.79-2.2c0.57-2.43,1.12-4.88,1.76-7.31
		c0.31-1.18,0.72-2.35,1.19-3.48c0.26-0.62,0.3-1.12-0.18-1.61L60.93,107.13z"/>
	<path class="st0" d="M50.96,144.44c-0.17-0.26-1.4,0.36-0.6-0.66c0.6-0.78-0.98-0.42-0.47-1.11c0.35-0.48,0.6-1.04,0.89-1.56
		c0.04-0.07,0.07-0.13,0.1-0.2c0.03-0.07,0.1-0.14,0.09-0.2c-0.02-0.11-0.08-0.22-0.15-0.31c-0.01-0.02-0.16,0.03-0.2,0.07
		c-0.09,0.11-0.17,0.24-0.24,0.37c-0.88,1.57-1.76,3.13-2.64,4.7c-0.25,0.45-0.53,0.82,0.02,1.37c0.28,0.28,0.16,0.96,0.22,1.46
		c0.48-0.39,1.08-0.7,1.42-1.19c0.6-0.85,1.05-1.81,1.56-2.72L50.96,144.44z"/>
	<path class="st0" d="M65.98,30.37c-0.86-0.09-1.73,0.12-2.58-0.34c-0.38-0.2-0.98,0-1.48,0.06c-0.32,0.04-0.64,0.28-0.2,0.51
		c1.35,0.74,1.48,2.19,1.63,3.35c0.16,1.18,0.61,1.88,1.44,2.54c0.45,0.36,0.83,0.8,1.24,1.21l0.09-0.03c0-0.33,0.14-0.84-0.01-0.95
		c-1.49-1.07-1.98-2.66-2.35-4.32c-0.09-0.42-0.31-0.94-0.15-1.26c0.29-0.6,0.74,0.06,1.13,0.06c0.54-0.01,1.03-0.17,1.27-0.73
		L65.98,30.37z"/>
	<path class="st0" d="M53.36,127.19c-1.16,2.52-2.27,5.06-2.99,7.75c-0.17,0.63-0.56,1.2-0.78,1.83c-0.08,0.21,0.05,0.5,0.08,0.76
		c0.72-1.31,1.46-2.63,2.19-3.94c-0.27-0.73-0.1-1.04,0.67-1.18c0.12-0.53,0.34-1.07,0.36-1.61
		C52.93,129.57,53.46,128.42,53.36,127.19L53.36,127.19z"/>
	<path class="st0" d="M67.7,113.5c-1.41,1.16-1.8,2.64-1.42,4.38c0.23-0.4,0.45-0.79,0.67-1.18c0-0.31-0.04-0.62,0.02-0.91
		c0.02-0.11,0.27-0.17,0.42-0.25c-0.01,0.14,0.01,0.29-0.05,0.4c-0.11,0.26-0.26,0.51-0.4,0.76c0.6,0.6-0.17,0.94-0.26,1.4
		c0.48,0.35,0.1,0.68-0.05,1.01c0.47,0.35,0.09,0.67-0.05,1.01c0.46,0.35,0.09,0.67-0.05,1c0.13,0.08,0.26,0.16,0.39,0.22
		c0.69-1.08,0.65-2.33,0.78-3.53c0.09-0.78-0.02-1.56,0.39-2.3C68.52,114.78,68.12,114.11,67.7,113.5L67.7,113.5z"/>
	<path class="st0" d="M6.35,180c-0.57-0.26-0.63,0.26-0.84,0.56c0.04,0.26,0.17,0.52,0.1,0.71c-0.14,0.38-0.38,0.72-0.59,1.08
		l0.01,0.04c0.34,0.01,0.67,0.02,1.01,0.02c0.2-0.29,0.28-0.78,0.83-0.57c0.21-0.39,0.43-0.79,0.65-1.18
		c-0.53-0.44-0.1-0.83,0.14-1.1c0.51-0.58,1.13-1.07,1.69-1.61c0.07-0.06,0.11-0.26,0.07-0.31c-0.09-0.1-0.25-0.2-0.37-0.19
		c-0.92,0.11-1.58,0.65-2.08,1.39C6.73,179.21,6.55,179.62,6.35,180c0.07,0.1,0.14,0.21,0.21,0.31c-0.08,0.02-0.15,0.05-0.23,0.07
		C6.34,180.26,6.34,180.13,6.35,180z"/>
	<path class="st0" d="M73.85,138.61c-2.76,0.96-5.5,1.99-8.44,2.27c-0.35,0.03-0.66,0.48-0.99,0.73c3.18-0.02,6.07-1.34,9.09-2.09
		c0.19-0.05,0.43-0.2,0.5-0.37c0.06-0.13-0.11-0.36-0.17-0.55L73.85,138.61z"/>
	<path class="st0" d="M58.39,100.56c-0.53,1.26-1.12,2.5-1.56,3.79c-0.34,1-0.27,2.21-0.81,3.06c-0.52,0.82-0.87,1.7-1.3,2.55
		c-0.13,0.25-0.03,0.62-0.03,0.94c0.87-0.19,0.53-1.05,0.87-1.53c1.45-2.05,1.42-4.7,2.73-6.8
		C58.02,101.88,58.91,101.25,58.39,100.56L58.39,100.56z"/>
	<path class="st0" d="M24.25,168.31c0.52-0.31,1.1-0.56,1.55-0.96c1.22-1.07,2.41-2.18,3.57-3.32c0.45-0.44,0.8-0.99,1.2-1.49
		l-0.01-0.04c-1.6,0.42-2.43,1.84-3.59,2.81c-1.02,0.85-2.19,1.64-2.73,2.97L24.25,168.31z"/>
	<path class="st0" d="M21.16,178.46c0.88-0.07,1.28-0.8,1.86-1.3c1.43-1.22,2.94-2.33,4.42-3.49c0.28-0.22,0.61-0.41,0.85-0.66
		c0.13-0.14,0.14-0.4,0.2-0.6c-0.15,0.05-0.32,0.06-0.45,0.14c-2.06,1.24-3.93,2.71-5.59,4.45c-0.45,0.47-0.88,0.95-1.31,1.43
		L21.16,178.46z"/>
	<path class="st0" d="M70.34,99.48c-0.84,1.59-0.98,2.42-0.85,4.76c0.01,0.13-0.18,0.3-0.32,0.39c-0.38,0.26-0.46,0.52-0.1,0.85
		c0.2-0.06,0.41-0.12,0.62-0.17c0.1-0.45,0.79-0.77,0.29-1.36c-0.09-0.11-0.17-0.23-0.25-0.35c1.59-0.75,0.1-2.48,1.17-3.52
		c0.97-0.94-0.45-0.29-0.54-0.6L70.34,99.48z"/>
	<path class="st0" d="M17.16,181.9c-1.73,0.62-3.02,1.85-4.31,3.08c-0.18,0.17-0.46,0.23-0.69,0.34c-0.2,0.28-0.28,0.77-0.83,0.57
		c-0.12,0.19-0.27,0.38-0.34,0.58c-0.07,0.19-0.07,0.42-0.11,0.63c0.12-0.04,0.26-0.06,0.36-0.12c0.48-0.33,1.01-0.62,1.43-1.01
		c1.21-1.15,2.42-2.28,3.89-3.12c0.28-0.16,0.41-0.6,0.61-0.92L17.16,181.9z"/>
	<path class="st0" d="M50.55,131.3c-0.52,0.91-1.09,1.8-1.54,2.74c-0.72,1.52-1.37,3.07-2.04,4.62c-0.05,0.11,0.02,0.27,0.04,0.4
		c0.12-0.07,0.31-0.12,0.36-0.22c0.63-1.48,1.89-2.64,2.04-4.4c0.06-0.75,0.76-1.44,1.1-2.18c0.12-0.27,0.03-0.63,0.03-0.95
		L50.55,131.3z"/>
	<path class="st0" d="M19.42,172.32c1.83-1.08,3.69-2.1,4.83-4.01l-0.01-0.04c-0.19,0.04-0.41,0.02-0.57,0.12
		c-1.06,0.64-2.1,1.3-3.15,1.95C20.15,171,19.78,171.65,19.42,172.32L19.42,172.32z"/>
	<path class="st0" d="M88.37,67.18c0.66,0.71-0.56,1.13-0.27,1.78c0.45-0.62,0.92-1.22,1.33-1.87c0.4-0.63,0.75-1.29,1.07-1.96
		c0.05-0.1-0.15-0.36-0.29-0.48c-0.07-0.06-0.37-0.03-0.39,0.02c-0.35,0.91-1.47,1.37-1.46,2.49L88.37,67.18z"/>
	<path class="st0" d="M37.44,162.22c-1.04,0.02-1.28,1.09-1.83,1.63c-0.81,0.8-1.46,1.77-2.42,2.46c-0.24,0.17-0.27,0.62-0.4,0.95
		c0.23-0.14,0.49-0.25,0.7-0.43C35.05,165.51,36.56,164.13,37.44,162.22L37.44,162.22z"/>
	<path class="st0" d="M69.72,33c-0.41-2.09-0.45-2.15-2.35-2.51c-0.46-0.09-0.93-0.09-1.4-0.13L66,30.48
		c0.11,0.18,0.23,0.5,0.35,0.51c1.51,0.04,2.37,1.13,3.35,2.03L69.72,33z"/>
	<path class="st0" d="M8.36,180.1c1.68-0.55,2.66-2.09,4.15-2.91c0.06-0.03,0.05-0.36-0.01-0.39c-0.18-0.09-0.52-0.2-0.58-0.13
		c-1.05,1.28-2.79,1.85-3.57,3.42L8.36,180.1z"/>
	<path class="st0" d="M35.76,172.64c-1.58,0.81-2.64,2.22-3.93,3.36c-0.08,0.07-0.06,0.27-0.08,0.4c0.15-0.04,0.34-0.04,0.44-0.13
		C33.45,175.14,34.98,174.26,35.76,172.64L35.76,172.64z"/>
	<path class="st0" d="M12.16,185.32c0.14-0.47-0.17-0.83-0.5-0.62c-1.29,0.84-2.65,1.64-3.44,3.06c1.01-0.34,1.92-0.82,2.55-1.72
		c0.09-0.12,0.37-0.11,0.56-0.15c0.28-0.19,0.56-0.38,0.84-0.57L12.16,185.32z"/>
	<path class="st0" d="M49.18,161.53c-0.94,1.69-1.89,3.38-2.82,5.07c-0.06,0.11-0.03,0.28-0.05,0.42c0.15-0.08,0.38-0.13,0.45-0.26
		c0.89-1.55,1.76-3.11,2.6-4.68C49.43,161.97,49.25,161.72,49.18,161.53L49.18,161.53z"/>
	<path class="st0" d="M94.61,54.12c0.22-0.09,0.52-0.11,0.65-0.28c0.26-0.32,0.42-0.72,0.63-1.09c-0.57-0.79,0.36-1.19,0.48-1.8
		c-0.62-0.21-0.63,0.4-0.9,0.66c-0.21,0.21-0.51,0.33-0.77,0.49c-0.28,0.52-0.58,1.05-0.87,1.58c0.13,0.07,0.27,0.14,0.4,0.22
		c0.13-0.24,0.24-0.51,0.42-0.73c0.09-0.11,0.28-0.13,0.42-0.19c-0.01,0.13,0,0.28-0.05,0.4C94.9,53.63,94.75,53.87,94.61,54.12
		L94.61,54.12z"/>
	<path class="st0" d="M54.34,124.58c0.31-0.93,0.66-1.82,0.9-2.73c0.11-0.41,0.01-0.87,0-1.3c-0.61,0.22-0.57,0.72-0.65,1.26
		c-0.12,0.85-0.44,1.66-0.66,2.5c-0.08,0.29-0.1,0.59-0.15,0.88C53.97,124.98,54.17,124.77,54.34,124.58z"/>
	<path class="st0" d="M103.61,127.83c1.43-0.57,2.72-1.32,3.55-2.67C105.74,125.74,104.46,126.5,103.61,127.83L103.61,127.83z"/>
	<path class="st0" d="M61.89,103.54c0.65-1.16,1.4-2.27,1.55-3.64c0.03-0.26,0.28-0.59-0.25-0.53c-0.19,0.02-0.53,0.21-0.52,0.27
		c0.24,1.35-0.5,2.41-0.98,3.56C61.65,103.27,61.82,103.42,61.89,103.54L61.89,103.54z"/>
	<path class="st0" d="M55.46,129.91c-0.31,0.87-0.68,1.72-0.92,2.61c-0.12,0.45-0.03,0.96-0.04,1.45c0.73-0.27,0.55-0.88,0.62-1.45
		c0.12-0.87,0.62-1.68,0.33-2.61L55.46,129.91z"/>
	<path class="st0" d="M17.17,181.91c1.34-0.41,2.22-1.35,2.94-2.5c-1.33,0.41-2.36,1.18-2.94,2.48L17.17,181.91z"/>
	<path class="st0" d="M19.41,172.31c-1.26,0.73-2.4,1.61-3.16,2.89C17.75,174.72,18.68,173.62,19.41,172.31L19.41,172.31z"/>
	<path class="st0" d="M106.3,117.46c0.5-0.19,1.01-0.39,1.51-0.59c0.52-0.2,0.84-0.54,0.79-1.13c-0.58,0.07-1.3-0.37-1.66,0.46
		l0.04,0.13c0.07,0.09,0.14,0.18,0.2,0.27c-0.14,0.02-0.29,0.04-0.43,0.06c-0.16,0.26-0.31,0.52-0.45,0.78L106.3,117.46z"/>
	<path class="st0" d="M93.17,54.86c-0.26,0.45-0.53,0.9-0.76,1.36c-0.09,0.18-0.09,0.41-0.12,0.62c0.16-0.11,0.32-0.2,0.47-0.32
		c0.81-0.65,1.45-1.43,1.85-2.4c-0.13-0.08-0.27-0.15-0.4-0.22c-0.34,0.32-0.23,1.15-1.05,0.96L93.17,54.86z"/>
	<path class="st0" d="M95.88,52.76c0.99-0.15,1.07-0.99,1.31-1.71c0.21-0.61,0.44-1.22,0.67-1.83c-0.22,0.09-0.53,0.12-0.65,0.29
		c-0.32,0.46-0.57,0.97-0.84,1.46C96.96,51.77,96,52.16,95.88,52.76L95.88,52.76z"/>
	<path class="st0" d="M41.33,165.42c-0.23,0.1-0.56,0.14-0.66,0.31c-0.6,0.99-1.14,2.01-1.71,3.02c0.23-0.1,0.56-0.14,0.66-0.31
		C40.23,167.46,40.77,166.43,41.33,165.42L41.33,165.42z"/>
	<path class="st0" d="M20.57,186.9c-0.67-0.15-1.14,0.12-1.46,0.7l0.03,0.1c0.57,0.59-0.2,0.9-0.28,1.35
		c0.22-0.1,0.54-0.13,0.65-0.3c0.39-0.59,0.71-1.22,1.06-1.84L20.57,186.9z"/>
	<path class="st0" d="M32.44,165.63c0.66-0.41,1.92-1.55,2.1-1.93c0.05-0.12,0.01-0.28,0.01-0.42c-0.12,0.05-0.24,0.1-0.36,0.15
		C33.24,163.88,32.91,164.81,32.44,165.63L32.44,165.63z"/>
	<path class="st0" d="M86.83,69.93c0.22-0.22,0.5-0.4,0.63-0.66c0.34-0.68,0.61-1.39,0.91-2.09c-0.23,0.07-0.56,0.11-0.66,0.28
		c-0.46,0.73-0.85,1.5-1.27,2.25C86.57,69.78,86.7,69.85,86.83,69.93L86.83,69.93z"/>
	<path class="st0" d="M71.94,95.71c-0.32,0.88-0.64,1.76-0.94,2.64c-0.04,0.11,0.03,0.26,0.04,0.39c0.12-0.07,0.29-0.12,0.35-0.23
		C71.92,97.65,72.19,96.73,71.94,95.71L71.94,95.71z"/>
	<path class="st0" d="M68.77,107.89c-0.49,0.87-1.11,1.73-0.53,2.8c0.61-0.47,0.08-1.51,0.92-1.87
		C69.03,108.51,68.89,108.2,68.77,107.89L68.77,107.89z"/>
	<path class="st0" d="M50.97,144.46c0.2-0.05,0.5-0.04,0.57-0.16c0.29-0.51,0.51-1.05,0.75-1.58c-0.13-0.02-0.26-0.07-0.38-0.04
		c-0.46,0.14-0.54,0.3-0.87,1.54c-0.02,0.07-0.05,0.14-0.08,0.21L50.97,144.46z"/>
	<path class="st0" d="M41.33,165.42c0.14,0.01,0.36,0.07,0.4,0.01c0.5-0.81,1.3-1.49,1.23-2.57c-0.47,0.73-0.95,1.45-1.41,2.18
		C41.47,165.16,41.4,165.29,41.33,165.42L41.33,165.42z"/>
	<path class="st0" d="M44.36,165.55c0.23-0.1,0.55-0.13,0.66-0.3c0.46-0.72,0.85-1.49,1.27-2.24c-0.23,0.1-0.55,0.13-0.66,0.3
		c-0.46,0.73-0.85,1.49-1.27,2.25L44.36,165.55z"/>
	<path class="st0" d="M22.68,184.97c-0.99,0.32-1.65,1.02-2.1,1.93c1.23-0.06,1.62-1.03,2.11-1.91L22.68,184.97z"/>
	<path class="st0" d="M32.44,165.63c-0.8,0.12-1.43,0.48-1.72,1.27c-0.03,0.07,0.1,0.28,0.15,0.28
		C31.91,167.19,32.02,166.26,32.44,165.63L32.44,165.63z"/>
	<path class="st0" d="M60.95,46.77c0.05,0.8,0.14,1.58,0.9,2.07l0.15-0.04c0.5-1.05-0.41-1.47-0.93-2.06L60.95,46.77z"/>
	<path class="st0" d="M84.54,4.59c0.06-0.63,0.14-1.26,0.18-1.89c0-0.05-0.25-0.17-0.37-0.16c-0.12,0.01-0.33,0.17-0.32,0.23
		c0.13,0.62,0.3,1.22,0.46,1.84L84.54,4.59z"/>
	<path class="st0" d="M107.47,122.76c-0.99,0.07-1.49,0.74-1.88,1.54C106.58,124.23,107.07,123.55,107.47,122.76L107.47,122.76z"/>
	<path class="st0" d="M14.37,176.72c1.01-0.04,1.49-0.74,1.89-1.53c-0.99,0.06-1.49,0.74-1.88,1.54L14.37,176.72z"/>
	<path class="st0" d="M102.43,122.53c-0.5,0.58-0.99,1.16-1.49,1.74c0.99-0.04,1.47-0.72,1.9-1.47l-0.03-0.09
		C102.69,122.65,102.57,122.59,102.43,122.53L102.43,122.53z"/>
	<path class="st0" d="M106.33,116.4c-0.81,0.06-1.63,0.09-2.05,0.96c0.34,0.03,0.68,0.04,1.01,0.05c0.2-0.06,0.4-0.11,0.6-0.17
		c0.16-0.25,0.31-0.49,0.46-0.74L106.33,116.4z"/>
	<path class="st0" d="M37.25,170.89c0.23-0.09,0.55-0.12,0.66-0.29c0.39-0.59,0.71-1.23,1.05-1.85c-0.22,0.1-0.55,0.13-0.66,0.3
		C37.91,169.64,37.6,170.28,37.25,170.89L37.25,170.89z"/>
	<path class="st0" d="M69.08,105.48c-0.46,0.76-0.79,1.53-0.31,2.41c0.23-0.73,0.46-1.46,0.7-2.19c-0.13-0.07-0.26-0.14-0.4-0.22
		L69.08,105.48z"/>
	<path class="st0" d="M86.83,69.93c-0.11,0.19-0.24,0.38-0.33,0.58c-0.27,0.59-0.53,1.18-0.79,1.77c0.05,0.01,0.13,0.04,0.14,0.03
		C86.33,71.58,87.28,71.04,86.83,69.93L86.83,69.93z"/>
	<path class="st0" d="M29.6,161.46c-0.19,0.03-0.38,0.04-0.56,0.1c-0.23,0.07-0.45,0.17-0.68,0.26c-0.21,0.39-0.43,0.79-0.65,1.18
		C28.71,162.94,29.19,162.25,29.6,161.46L29.6,161.46z"/>
	<path class="st0" d="M94.69,52.11c0.3-0.64,0.6-1.28,0.9-1.92c-0.82,0.27-0.84,1.16-1.29,1.71c0.13,0.07,0.26,0.14,0.4,0.21
		L94.69,52.11z"/>
	<path class="st0" d="M86.44,69.71c-1.04-0.06-0.86,0.99-1.32,1.46c-0.03,0.03,0.07,0.21,0.13,0.3c0.01,0.01,0.16-0.03,0.19-0.08
		c0.34-0.56,0.66-1.13,0.99-1.7L86.44,69.71z"/>
	<path class="st0" d="M71.09,42.56c-0.4,0.66-0.8,1.31-0.09,2.01C71.33,43.92,71.48,43.25,71.09,42.56L71.09,42.56z"/>
	<path class="st0" d="M40.16,170.32c-0.07,0.13-0.18,0.25-0.2,0.38c-0.04,0.17-0.01,0.36-0.01,0.54c0.11-0.08,0.26-0.13,0.33-0.24
		c0.16-0.24,0.31-0.49,0.43-0.76c0.11-0.25,0.16-0.53,0.24-0.79c-0.22,0.23-0.45,0.45-0.67,0.68
		C40.22,170.18,40.19,170.26,40.16,170.32C40.16,170.32,40.16,170.32,40.16,170.32z"/>
	<path class="st0" d="M35.76,172.64c0.22-0.09,0.54-0.12,0.65-0.29c0.32-0.46,0.56-0.97,0.84-1.46c-0.22,0.1-0.53,0.13-0.65,0.29
		C36.28,171.64,36.03,172.15,35.76,172.64L35.76,172.64z"/>
	<path class="st0" d="M1.11,179.99c-0.53,0.33-0.82,0.47-1.07,0.68c-0.07,0.06-0.01,0.28-0.02,0.43c0.2-0.03,0.47,0.01,0.57-0.1
		C0.78,180.79,0.86,180.5,1.11,179.99z"/>
	<path class="st0" d="M71.5,55.71c-0.38,0.57-0.33,1.12,0.13,1.62l0.04-0.01c0.14-0.26,0.28-0.52,0.42-0.79
		c-0.18-0.28-0.37-0.56-0.55-0.84L71.5,55.71z"/>
	<path class="st0" d="M6.03,191.7c0.01-0.34,0.02-0.67,0.04-1.01c-0.13-0.07-0.26-0.14-0.4-0.21c-0.06,0.12-0.14,0.25-0.21,0.38
		c-0.39,0.78-0.38,0.78,0.55,0.85L6.03,191.7z"/>
	<path class="st0" d="M61.89,103.54c-0.07,0.13-0.16,0.25-0.22,0.38c-0.16,0.39-0.31,0.79-0.46,1.18c0.05,0.01,0.13,0.04,0.14,0.03
		C61.67,104.65,62.49,104.33,61.89,103.54C61.89,103.54,61.89,103.54,61.89,103.54z"/>
	<path class="st0" d="M30.57,162.54c0.97,0.05,0.83-0.93,1.27-1.37c-0.23,0.07-0.52,0.1-0.65,0.26c-0.26,0.32-0.42,0.71-0.63,1.07
		L30.57,162.54z"/>
	<path class="st0" d="M84.09,72.98c0.07-0.13,0.17-0.25,0.2-0.38c0.03-0.13-0.01-0.28-0.02-0.41c-0.12,0.07-0.28,0.11-0.36,0.22
		c-0.17,0.24-0.31,0.5-0.43,0.76c-0.05,0.12-0.04,0.27-0.06,0.4c0.15-0.07,0.32-0.11,0.44-0.21C83.97,73.27,84.02,73.11,84.09,72.98
		z"/>
	<path class="st0" d="M58.15,119.53c-0.07,0.13-0.16,0.25-0.21,0.38c-0.16,0.39-0.31,0.78-0.46,1.17c0.05,0.01,0.13,0.05,0.14,0.03
		c0.32-0.48,1.11-0.8,0.52-1.58L58.15,119.53z"/>
	<path class="st0" d="M54.54,127.85c-0.15,0.6-1.07,1-0.49,1.8c0.2-0.36,0.45-0.71,0.59-1.09
		C54.71,128.35,54.57,128.08,54.54,127.85L54.54,127.85z"/>
	<path class="st0" d="M91.51,63.4c0.01-0.09,0.04-0.29,0.08-0.49c-0.18,0.14-0.38,0.27-0.55,0.43c-0.1,0.1-0.18,0.24-0.21,0.37
		c-0.05,0.19-0.04,0.38-0.05,0.58c0.16-0.13,0.32-0.25,0.46-0.4C91.33,63.78,91.38,63.63,91.51,63.4z"/>
	<path class="st0" d="M38.71,160.87c-0.22,0.09-0.53,0.11-0.65,0.27c-0.26,0.32-0.42,0.72-0.62,1.09
		C38.44,162.31,38.27,161.3,38.71,160.87L38.71,160.87z"/>
	<path class="st0" d="M41.79,168.32c-0.07,0.13-0.17,0.25-0.2,0.38c-0.03,0.13,0.01,0.28,0.02,0.42c0.12-0.07,0.28-0.11,0.36-0.22
		c0.17-0.23,0.31-0.49,0.43-0.76c0.05-0.12,0.04-0.27,0.05-0.4c-0.15,0.07-0.32,0.1-0.44,0.2C41.9,168.04,41.86,168.19,41.79,168.32
		C41.79,168.32,41.79,168.32,41.79,168.32z"/>
	<path class="st0" d="M42.57,172.47c-0.07,0.13-0.17,0.25-0.2,0.38c-0.02,0.09,0.09,0.2,0.14,0.3c0.11-0.08,0.27-0.14,0.31-0.25
		c0.16-0.38,0.28-0.77,0.42-1.16c-0.06,0.02-0.13,0.03-0.19,0.05c-0.06,0.03-0.13,0.06-0.16,0.12
		C42.78,172.09,42.68,172.28,42.57,172.47C42.57,172.47,42.57,172.47,42.57,172.47z"/>
	<path class="st0" d="M64.42,141.62c-0.26-0.14-0.53-0.29-0.79-0.43c-0.2,0.06-0.4,0.12-0.61,0.17c-0.06,0.13-0.14,0.26-0.22,0.39
		C63.37,142.14,63.91,142.11,64.42,141.62L64.42,141.62z"/>
	<path class="st0" d="M79.07,130.16c0.68,0.13,1.17-0.09,1.45-0.74c-0.13-0.07-0.26-0.14-0.39-0.22c-0.21,0.06-0.41,0.12-0.61,0.17
		c-0.16,0.27-0.3,0.53-0.45,0.8L79.07,130.16z"/>
	<path class="st0" d="M104.28,117.36c-0.68-0.13-1.16,0.11-1.44,0.75c0.34,0.01,0.68,0.03,1.01,0.04c0.14-0.26,0.29-0.52,0.44-0.78
		L104.28,117.36z"/>
	<path class="st0" d="M100.94,124.27c-0.07-0.02-0.18-0.08-0.21-0.06c-0.34,0.29-0.67,0.6-1,0.9c0.06,0.04,0.12,0.09,0.19,0.11
		c0.79,0.19,0.7-0.61,1.03-0.93L100.94,124.27z"/>
	<path class="st0" d="M107.16,125.16c0.83,0.21,0.72-0.62,1.06-0.95c-0.84-0.21-1.11,0.2-1.05,0.96L107.16,125.16z"/>
	<path class="st0" d="M56.59,126.12c0.02-0.22,0.03-0.42,0.05-0.62c-0.19,0.17-0.41,0.32-0.55,0.53c-0.07,0.11,0.01,0.32,0.03,0.48
		C56.27,126.38,56.42,126.26,56.59,126.12z"/>
	<path class="st0" d="M54.05,129.64c-0.1,0.46-0.88,0.8-0.26,1.4C53.87,130.58,54.69,130.25,54.05,129.64L54.05,129.64z"/>
	<path class="st0" d="M55.63,127.56c-0.02,0.27-0.03,0.53-0.05,0.78c0.15-0.13,0.35-0.24,0.45-0.41c0.1-0.17,0.1-0.39,0.14-0.59
		C56.01,127.4,55.85,127.47,55.63,127.56z"/>
	<path class="st0" d="M38.71,160.86c0.85,0.22,0.7-0.64,1.05-0.96C38.93,159.69,39.06,160.54,38.71,160.86L38.71,160.86z"/>
	<path class="st0" d="M39.76,159.89c0.26-0.16,0.55-0.29,0.78-0.5c0.08-0.07-0.01-0.32-0.02-0.49c-0.11,0.08-0.25,0.14-0.32,0.25
		c-0.16,0.24-0.29,0.5-0.43,0.76C39.77,159.91,39.76,159.89,39.76,159.89z"/>
	<path class="st0" d="M67.97,112.09c0.11-0.46,0.87-0.8,0.26-1.4C68.15,111.16,67.33,111.49,67.97,112.09L67.97,112.09z"/>
	<path class="st0" d="M67.97,112.09c-0.1,0.46-0.88,0.8-0.27,1.4C67.8,113.03,68.59,112.7,67.97,112.09L67.97,112.09z"/>
	<path class="st0" d="M20.11,179.42c0.83,0.21,0.71-0.62,1.06-0.95l-0.01-0.03C20.31,178.23,20.45,179.08,20.11,179.42L20.11,179.42
		z"/>
	<path class="st0" d="M38.73,172.97c0.02-0.22,0.03-0.42,0.05-0.62c-0.19,0.18-0.41,0.33-0.55,0.54c-0.07,0.11,0.01,0.31,0.03,0.48
		C38.41,173.23,38.57,173.11,38.73,172.97z"/>
	<path class="st0" d="M53.35,127.19c0.04-0.06,0.08-0.12,0.11-0.19c0.12-0.32,0.23-0.65,0.34-0.98c-0.11,0.02-0.3,0.01-0.33,0.07
		C53.3,126.44,52.82,126.77,53.35,127.19L53.35,127.19z"/>
	<path class="st0" d="M60.91,107.13c0.04-0.06,0.08-0.12,0.1-0.19c0.12-0.32,0.23-0.65,0.35-0.97c-0.11,0.02-0.3,0-0.33,0.06
		c-0.18,0.35-0.63,0.68-0.12,1.1L60.91,107.13z"/>
	<path class="st0" d="M44.36,165.56c-0.26,0.16-0.55,0.29-0.77,0.5c-0.08,0.07,0.01,0.32,0.02,0.49c0.11-0.08,0.25-0.14,0.32-0.25
		c0.16-0.24,0.29-0.5,0.43-0.75L44.36,165.56z"/>
	<path class="st0" d="M55.55,123.25c-0.09,0.47-0.89,0.8-0.26,1.4C55.38,124.19,56.17,123.85,55.55,123.25L55.55,123.25z"/>
	<path class="st0" d="M69.3,131.95c0.26,0.08,0.52,0.2,0.77,0.21c0.09,0,0.18-0.31,0.27-0.47c-0.11-0.03-0.24-0.12-0.32-0.08
		C69.77,131.69,69.54,131.82,69.3,131.95L69.3,131.95z"/>
	<path class="st0" d="M74.25,129.54c-0.26-0.08-0.52-0.2-0.78-0.2c-0.09,0-0.18,0.31-0.27,0.48c0.11,0.03,0.24,0.12,0.33,0.09
		C73.78,129.81,74.01,129.67,74.25,129.54L74.25,129.54z"/>
	<path class="st0" d="M55.29,124.65c-0.04,0.06-0.08,0.12-0.11,0.19c-0.12,0.33-0.24,0.65-0.35,0.98c0.11-0.02,0.3,0,0.33-0.05
		c0.17-0.35,0.63-0.69,0.12-1.11L55.29,124.65z"/>
	<path class="st0" d="M14.37,176.74c-0.83-0.21-0.71,0.63-1.05,0.96c0.84,0.21,0.7-0.64,1.05-0.97L14.37,176.74z"/>
	<path class="st0" d="M54.53,127.85c0.04-0.06,0.08-0.12,0.11-0.19c0.12-0.32,0.23-0.65,0.35-0.98c-0.11,0.02-0.3,0-0.33,0.06
		C54.49,127.09,54.02,127.42,54.53,127.85L54.53,127.85z"/>
	<path class="st0" d="M11.43,179.22c0.83,0.21,0.72-0.62,1.05-0.96C11.64,178.05,11.77,178.9,11.43,179.22L11.43,179.22z"/>
	<path class="st0" d="M23.73,184.02c-0.83-0.21-0.71,0.63-1.06,0.95C23.53,185.2,23.39,184.34,23.73,184.02L23.73,184.02z"/>
	<path class="st0" d="M107.47,122.76c0.56,0.24,0.63-0.27,0.84-0.56C107.75,121.97,107.68,122.46,107.47,122.76L107.47,122.76z"/>
	<path class="st0" d="M103.61,127.84c-0.56-0.23-0.64,0.26-0.84,0.56C103.35,128.64,103.41,128.13,103.61,127.84L103.61,127.84z"/>
	<path class="st0" d="M105.59,124.29c-0.57-0.23-0.63,0.27-0.83,0.57c0.55,0.21,0.63-0.28,0.83-0.58L105.59,124.29z"/>
	<path class="st0" d="M102.78,128.4c-0.57-0.23-0.63,0.28-0.83,0.57C102.5,129.19,102.58,128.71,102.78,128.4L102.78,128.4z"/>
	<path class="st0" d="M101.11,129.54c0.57,0.24,0.63-0.27,0.83-0.57C101.37,128.73,101.32,129.25,101.11,129.54L101.11,129.54z"/>
	<path class="st0" d="M104.14,125.04c-0.56-0.23-0.63,0.27-0.83,0.57C103.87,125.83,103.94,125.33,104.14,125.04L104.14,125.04z"/>
	<path class="st0" d="M101.11,129.54c-0.56-0.22-0.63,0.27-0.83,0.57C100.84,130.34,100.9,129.83,101.11,129.54L101.11,129.54z"/>
	<path class="st0" d="M102.47,126.16c0.57,0.23,0.63-0.27,0.83-0.57C102.74,125.37,102.68,125.88,102.47,126.16L102.47,126.16z"/>
	<path class="st0" d="M99.44,130.67c0.56,0.23,0.63-0.27,0.83-0.57C99.72,129.89,99.65,130.38,99.44,130.67L99.44,130.67z"/>
	<path class="st0" d="M102.48,126.17c-0.56-0.23-0.63,0.27-0.83,0.57C102.2,126.95,102.27,126.47,102.48,126.17L102.48,126.17z"/>
	<path class="st0" d="M98.61,131.24c0.56,0.23,0.63-0.27,0.83-0.57C98.88,130.45,98.82,130.95,98.61,131.24L98.61,131.24z"/>
	<path class="st0" d="M101.64,126.74c-0.57-0.24-0.63,0.27-0.83,0.57C101.37,127.53,101.44,127.04,101.64,126.74L101.64,126.74z"/>
	<path class="st0" d="M97.78,131.81c0.57,0.24,0.63-0.27,0.83-0.57C98.05,131.02,97.98,131.51,97.78,131.81L97.78,131.81z"/>
	<path class="st0" d="M99.97,127.87c0.56,0.22,0.63-0.27,0.83-0.57C100.24,127.08,100.18,127.58,99.97,127.87L99.97,127.87z"/>
	<path class="st0" d="M97.78,131.82c-0.56-0.22-0.63,0.27-0.83,0.56C97.5,132.6,97.57,132.1,97.78,131.82L97.78,131.82z"/>
	<path class="st0" d="M99.14,128.44c0.55,0.22,0.63-0.26,0.83-0.56c-0.57-0.24-0.62,0.28-0.83,0.58L99.14,128.44z"/>
	<path class="st0" d="M105.25,118.42c0.15-0.26,0.29-0.52,0.44-0.78c-0.13-0.08-0.27-0.16-0.4-0.22c-0.14,0.26-0.29,0.53-0.44,0.79
		C104.98,118.27,105.11,118.34,105.25,118.42L105.25,118.42z"/>
	<path class="st0" d="M102.04,122.31c0.13,0.07,0.26,0.14,0.39,0.22c0.15-0.27,0.3-0.53,0.44-0.79
		C102.3,121.5,102.25,122.02,102.04,122.31L102.04,122.31z"/>
	<path class="st0" d="M98.53,128.62c-0.19,0.03-0.39,0.03-0.55,0.12c-0.08,0.04-0.06,0.24-0.09,0.37c0.14-0.05,0.31-0.06,0.42-0.15
		c0.1-0.08,0.15-0.24,0.22-0.36L98.53,128.62z"/>
	<path class="st0" d="M94.66,133.69c0.19-0.03,0.39-0.03,0.55-0.12c0.07-0.04,0.06-0.24,0.09-0.37c-0.14,0.04-0.31,0.06-0.42,0.14
		c-0.1,0.08-0.15,0.24-0.22,0.36L94.66,133.69z"/>
	<path class="st0" d="M100.59,123.05c0.56,0.23,0.63-0.27,0.83-0.56C100.87,122.26,100.8,122.76,100.59,123.05L100.59,123.05z"/>
	<path class="st0" d="M96.86,129.76c-0.57-0.23-0.63,0.27-0.83,0.57c0.56,0.22,0.63-0.28,0.83-0.58L96.86,129.76z"/>
	<path class="st0" d="M93,134.83c0.19-0.03,0.39-0.03,0.56-0.12c0.08-0.04,0.06-0.25,0.09-0.38c-0.14,0.04-0.31,0.05-0.42,0.13
		C93.11,134.55,93.07,134.71,93,134.83L93,134.83z"/>
	<path class="st0" d="M95.19,130.88c0.57,0.23,0.63-0.28,0.83-0.57c-0.55-0.21-0.63,0.28-0.83,0.58L95.19,130.88z"/>
	<path class="st0" d="M102.84,118.11c-0.57-0.24-0.62,0.28-0.83,0.57c0.13,0.06,0.26,0.14,0.4,0.21
		C102.54,118.63,102.69,118.37,102.84,118.11L102.84,118.11z"/>
	<path class="st0" d="M101.39,118.85c-0.56-0.22-0.63,0.27-0.83,0.56c0.13,0.07,0.26,0.14,0.39,0.22
		C101.1,119.37,101.24,119.11,101.39,118.85L101.39,118.85z"/>
	<path class="st0" d="M100.56,119.42c-0.58-0.24-0.62,0.28-0.83,0.57c0.13,0.07,0.26,0.14,0.39,0.22
		C100.26,119.94,100.41,119.68,100.56,119.42L100.56,119.42z"/>
	<path class="st0" d="M92.08,132.76c0.57,0.24,0.63-0.27,0.83-0.57c-0.56-0.21-0.63,0.27-0.83,0.58L92.08,132.76z"/>
	<path class="st0" d="M91.24,133.33c0.56,0.22,0.62-0.28,0.83-0.57c-0.56-0.21-0.63,0.28-0.83,0.58L91.24,133.33z"/>
	<path class="st0" d="M90.63,133.52c-0.55-0.23-0.62,0.26-0.84,0.55l0.01,0.03c0.55,0.18,0.63-0.29,0.83-0.59L90.63,133.52z"/>
	<path class="st0" d="M78.06,130.12c0.33,0.16,0.65,0.52,1.01,0.04c-0.26-0.14-0.53-0.28-0.79-0.43
		C78.21,129.86,78.14,129.99,78.06,130.12L78.06,130.12z"/>
	<path class="st0" d="M74.83,130.37c-0.07,0.13-0.15,0.27-0.22,0.4c0.33,0.13,0.65,0.52,1,0.04c-0.26-0.14-0.53-0.29-0.79-0.43
		L74.83,130.37z"/>
	<path class="st0" d="M69.34,130.94c-0.12-0.07-0.25-0.18-0.37-0.19c-0.14-0.01-0.28,0.07-0.42,0.11c0.09,0.1,0.19,0.28,0.27,0.27
		C69,131.12,69.17,131.01,69.34,130.94L69.34,130.94z"/>
	<path class="st0" d="M41.17,174.55c0.11-0.06,0.28-0.11,0.31-0.2c0.04-0.13-0.03-0.29-0.05-0.44c-0.1,0.08-0.24,0.15-0.28,0.26
		C41.1,174.27,41.16,174.42,41.17,174.55z"/>
	<path class="st0" d="M66.86,123.35c-0.07,0.13-0.18,0.25-0.19,0.38c-0.01,0.14,0.07,0.29,0.11,0.43c0.1-0.09,0.28-0.19,0.27-0.28
		C67.03,123.7,66.92,123.53,66.86,123.35L66.86,123.35z"/>
	<path class="st0" d="M66.46,123.13c0.13,0.07,0.27,0.15,0.4,0.22c0.14-0.33,0.53-0.65,0.04-1.01c-0.14,0.26-0.29,0.53-0.44,0.79
		L66.46,123.13z"/>
	<path class="st0" d="M34.42,179.19c-0.11,0.06-0.29,0.11-0.32,0.2c-0.04,0.14,0.03,0.3,0.05,0.46c0.1-0.09,0.25-0.15,0.3-0.26
		C34.49,179.48,34.43,179.33,34.42,179.19z"/>
	<path class="st0" d="M60.23,131.53c0.33,0.15,0.65,0.54,1.01,0.05C60.91,131.44,60.59,131.05,60.23,131.53L60.23,131.53z"/>
	<path class="st0" d="M33.36,180.16c-0.11,0.07-0.29,0.11-0.31,0.21c-0.04,0.13,0.03,0.29,0.05,0.44c0.1-0.08,0.24-0.15,0.29-0.26
		C33.42,180.44,33.37,180.3,33.36,180.16z"/>
	<path class="st0" d="M41.77,157.99c-0.21,0.02-0.4,0-0.41,0.04c-0.06,0.18-0.07,0.38-0.09,0.57c0.07-0.02,0.16-0.03,0.19-0.08
		C41.57,158.38,41.65,158.21,41.77,157.99z"/>
	<path class="st0" d="M55.45,129.91c0.07-0.13,0.18-0.25,0.19-0.38c0.01-0.14-0.06-0.29-0.1-0.43c-0.1,0.09-0.28,0.19-0.27,0.28
		c0.01,0.18,0.12,0.35,0.19,0.53L55.45,129.91z"/>
	<path class="st0" d="M23.74,184.02c0.19-0.03,0.42-0.01,0.54-0.12c0.08-0.07,0-0.32,0-0.49c-0.11,0.08-0.24,0.14-0.32,0.24
		C23.86,183.76,23.81,183.89,23.74,184.02L23.74,184.02z"/>
	<path class="st0" d="M57.1,123.68c-0.11,0.07-0.29,0.11-0.31,0.2c-0.04,0.13,0.03,0.3,0.05,0.45c0.1-0.09,0.24-0.15,0.29-0.26
		C57.17,123.96,57.12,123.81,57.1,123.68z"/>
	<path class="st0" d="M84.89,73.44c-0.02,0.13-0.04,0.26-0.06,0.39c0.14-0.06,0.32-0.1,0.41-0.2c0.06-0.07,0-0.25-0.01-0.39
		C85.12,73.3,85,73.37,84.89,73.44z"/>
	<path class="st0" d="M83.2,74.54c-0.01-0.13-0.02-0.25-0.02-0.38c-0.11,0.06-0.3,0.11-0.32,0.2c-0.04,0.13,0.04,0.29,0.06,0.44
		C83.01,74.72,83.1,74.63,83.2,74.54z"/>
	<path class="st0" d="M18.03,189.61c0.57,0.24,0.63-0.27,0.83-0.57C18.3,188.82,18.24,189.32,18.03,189.61L18.03,189.61z"/>
	<path class="st0" d="M101.07,40.69c0.55,0.22,0.63-0.27,0.84-0.56l-0.01-0.04c-0.55-0.21-0.63,0.27-0.83,0.57L101.07,40.69z"/>
	<path class="st0" d="M19.11,187.6c-0.19,0.05-0.43,0.05-0.54,0.16c-0.08,0.09-0.01,0.33,0,0.51c0.11-0.07,0.24-0.13,0.33-0.22
		c0.1-0.1,0.16-0.23,0.24-0.35L19.11,187.6z"/>
	<path class="st0" d="M57.01,117.86c0.07-0.13,0.19-0.25,0.2-0.38c0.01-0.14-0.07-0.29-0.11-0.44c-0.1,0.09-0.28,0.19-0.28,0.28
		C56.83,117.5,56.93,117.68,57.01,117.86L57.01,117.86z"/>
	<path class="st0" d="M30.43,160.9c-0.56-0.24-0.63,0.26-0.84,0.56C30.17,161.7,30.23,161.19,30.43,160.9L30.43,160.9z"/>
	<path class="st0" d="M52.58,117.47c-0.19,0.03-0.39,0.03-0.55,0.11c-0.07,0.04-0.06,0.25-0.09,0.38c0.14-0.04,0.31-0.05,0.42-0.14
		c0.1-0.08,0.15-0.24,0.22-0.36L52.58,117.47z"/>
	<path class="st0" d="M7.38,188.33c0.56,0.23,0.63-0.26,0.84-0.56C7.65,187.53,7.59,188.04,7.38,188.33L7.38,188.33z"/>
	<path class="st0" d="M12.48,178.26c0.57,0.23,0.63-0.27,0.83-0.57C12.75,177.46,12.68,177.96,12.48,178.26L12.48,178.26z"/>
	<path class="st0" d="M11.43,179.22c-0.57-0.24-0.63,0.27-0.84,0.56C11.16,180.02,11.23,179.52,11.43,179.22L11.43,179.22z"/>
	<path class="st0" d="M10.59,179.79c-0.56-0.23-0.63,0.27-0.83,0.57c0.56,0.23,0.64-0.26,0.84-0.56L10.59,179.79z"/>
	<path class="st0" d="M8.93,180.93c0.57,0.24,0.63-0.27,0.83-0.57C9.2,180.13,9.13,180.62,8.93,180.93L8.93,180.93z"/>
	<path class="st0" d="M8.36,180.09c-0.56-0.22-0.63,0.27-0.83,0.57c0.57,0.25,0.63-0.27,0.83-0.56L8.36,180.09z"/>
	<path class="st0" d="M71.55,54.7c-0.16,0.33-0.52,0.65-0.05,1.01l0.03-0.01c0.14-0.33,0.53-0.65,0.04-1.01L71.55,54.7z"/>
	<path class="st0" d="M111.94,113.51c-0.04-0.02-0.08-0.05-0.13-0.07c-0.02,0.09-0.04,0.19-0.06,0.28c0.06-0.02,0.13-0.03,0.18-0.07
		C111.96,113.63,111.94,113.55,111.94,113.51z"/>
	<path class="st0" d="M104.14,125.03c0.2-0.06,0.41-0.12,0.61-0.18C104.55,124.92,104.35,124.98,104.14,125.03L104.14,125.03z"/>
	<path class="st0" d="M105.69,117.63c0.2-0.06,0.41-0.11,0.61-0.17c-0.13-0.1-0.25-0.17-0.39-0.23
		C105.82,117.36,105.75,117.49,105.69,117.63L105.69,117.63z"/>
	<path class="st0" d="M106.94,116.21c-0.2,0.06-0.4,0.13-0.61,0.19l0.02,0.1c0.12,0.06,0.25,0.12,0.37,0.17
		c0.09-0.11,0.17-0.22,0.25-0.33L106.94,116.21z"/>
	<path class="st0" d="M96.94,132.38c-0.2,0.06-0.41,0.12-0.61,0.17C96.53,132.5,96.74,132.44,96.94,132.38L96.94,132.38z"/>
	<path class="st0" d="M99.14,128.45c-0.2,0.06-0.41,0.12-0.61,0.17c0.2-0.07,0.41-0.13,0.61-0.19L99.14,128.45z"/>
	<path class="st0" d="M96.33,132.56c-0.13-0.01-0.26-0.01-0.38-0.02c0.02,0.08,0.05,0.16,0.07,0.24
		C96.12,132.71,96.23,132.63,96.33,132.56L96.33,132.56z"/>
	<path class="st0" d="M102.04,122.31c-0.2,0.06-0.41,0.11-0.61,0.17C101.63,122.43,101.84,122.37,102.04,122.31L102.04,122.31z"/>
	<path class="st0" d="M96.86,129.75c0.13,0.01,0.25,0.02,0.38,0.03c-0.02-0.08-0.04-0.16-0.07-0.24c-0.1,0.07-0.21,0.15-0.31,0.22
		L96.86,129.75z"/>
	<path class="st0" d="M94.66,133.7c-0.13-0.01-0.25-0.02-0.38-0.03c0.02,0.08,0.04,0.16,0.07,0.24c0.1-0.07,0.21-0.15,0.31-0.22
		L94.66,133.7z"/>
	<path class="st0" d="M100.6,123.06c-0.13-0.01-0.26-0.02-0.39-0.03c0.02,0.08,0.05,0.16,0.07,0.25
		C100.38,123.2,100.49,123.13,100.6,123.06L100.6,123.06z"/>
	<path class="st0" d="M99.34,123.61c0,0.05,0,0.11-0.01,0.16c0.09-0.01,0.17-0.02,0.26-0.03c-0.02-0.07-0.04-0.13-0.06-0.2
		C99.47,123.57,99.41,123.59,99.34,123.61z"/>
	<path class="st0" d="M93,134.83c-0.13-0.01-0.26-0.02-0.39-0.02c0.02,0.08,0.05,0.17,0.07,0.25
		C92.78,134.98,92.89,134.91,93,134.83L93,134.83z"/>
	<path class="st0" d="M95.2,130.9c-0.13-0.01-0.25-0.02-0.38-0.03c0.02,0.08,0.04,0.16,0.07,0.24c0.1-0.07,0.21-0.15,0.31-0.22
		L95.2,130.9z"/>
	<path class="st0" d="M99.81,122.2c-0.05,0-0.1,0-0.15,0c0.01,0.08,0.02,0.16,0.03,0.24c0.06-0.02,0.12-0.04,0.18-0.06
		C99.85,122.32,99.83,122.26,99.81,122.2z"/>
	<path class="st0" d="M102,118.68c-0.2,0.06-0.41,0.12-0.61,0.17c0.2-0.07,0.41-0.13,0.61-0.18L102,118.68z"/>
	<path class="st0" d="M91.94,135.38c-0.05,0-0.1,0-0.15,0c0.01,0.08,0.02,0.16,0.03,0.24c0.06-0.02,0.12-0.04,0.18-0.06
		C91.98,135.5,91.96,135.44,91.94,135.38z"/>
	<path class="st0" d="M93.95,131.46c0,0.05,0,0.1,0,0.15c0.08-0.01,0.16-0.02,0.25-0.03c-0.02-0.06-0.04-0.12-0.06-0.19
		C94.07,131.42,94.01,131.44,93.95,131.46z"/>
	<path class="st0" d="M92.91,132.2c0.13,0.01,0.25,0.02,0.38,0.03c-0.02-0.08-0.04-0.16-0.07-0.24c-0.1,0.08-0.21,0.15-0.31,0.23
		L92.91,132.2z"/>
	<path class="st0" d="M90.5,136.12c-0.05,0-0.1,0-0.15,0c0.01,0.08,0.02,0.16,0.03,0.24c0.06-0.02,0.12-0.04,0.18-0.06
		C90.54,136.24,90.52,136.18,90.5,136.12z"/>
	<path class="st0" d="M99.72,119.99c-0.15,0.03-0.3,0.06-0.45,0.09c0.08,0.1,0.16,0.2,0.23,0.3
		C99.58,120.25,99.65,120.11,99.72,119.99L99.72,119.99z"/>
	<path class="st0" d="M89.66,136.69c-0.05,0-0.1,0-0.15,0c0.01,0.08,0.02,0.16,0.03,0.24c0.06-0.02,0.12-0.04,0.18-0.06
		C89.7,136.81,89.68,136.75,89.66,136.69z"/>
	<path class="st0" d="M98.7,120.58c-0.04-0.02-0.08-0.05-0.13-0.07c-0.02,0.1-0.05,0.19-0.07,0.29c0.06-0.02,0.14-0.03,0.18-0.07
		C98.71,120.7,98.69,120.63,98.7,120.58z"/>
	<path class="st0" d="M91.25,133.34c-0.2,0.06-0.41,0.12-0.61,0.17c0.2-0.07,0.41-0.13,0.61-0.19L91.25,133.34z"/>
	<path class="st0" d="M97.84,121.52c0.01-0.13,0.01-0.25,0.02-0.38c-0.08,0.02-0.16,0.05-0.25,0.07
		C97.69,121.31,97.76,121.41,97.84,121.52L97.84,121.52z"/>
	<path class="st0" d="M97,122.09c0.01-0.12,0.03-0.25,0.04-0.37c-0.14,0.05-0.29,0.1-0.43,0.16C96.74,121.94,96.87,122.01,97,122.09
		L97,122.09z"/>
	<path class="st0" d="M85.11,139.76c0.15-0.04,0.3-0.09,0.45-0.13c-0.07-0.1-0.15-0.21-0.22-0.31l-0.05,0.01
		c-0.06,0.12-0.13,0.24-0.2,0.35L85.11,139.76z"/>
	<path class="st0" d="M84.49,139.92c0.21-0.05,0.41-0.1,0.62-0.16l-0.02-0.07c-0.12-0.06-0.24-0.12-0.35-0.19l-0.06,0.02
		c-0.07,0.12-0.13,0.24-0.19,0.37L84.49,139.92z"/>
	<path class="st0" d="M86.43,128.07c-0.01,0.13-0.01,0.25-0.02,0.38c0.08-0.02,0.16-0.05,0.24-0.07c-0.07-0.1-0.14-0.21-0.21-0.31
		L86.43,128.07z"/>
	<path class="st0" d="M86.04,127.86c0.12,0.08,0.25,0.15,0.38,0.21c0.09-0.13,0.17-0.26,0.23-0.39c-0.13-0.09-0.26-0.16-0.4-0.22
		c-0.08,0.12-0.15,0.25-0.22,0.38L86.04,127.86z"/>
	<path class="st0" d="M77.45,130.29c0.2-0.06,0.41-0.11,0.61-0.17c-0.13-0.07-0.27-0.14-0.4-0.22c-0.06,0.13-0.14,0.26-0.21,0.4
		L77.45,130.29z"/>
	<path class="st0" d="M76.83,130.46c0.2-0.06,0.41-0.12,0.61-0.17c-0.2,0.07-0.41,0.13-0.61,0.19L76.83,130.46z"/>
	<path class="st0" d="M76.22,130.64c0.2-0.06,0.41-0.12,0.61-0.18C76.63,130.53,76.43,130.59,76.22,130.64L76.22,130.64z"/>
	<path class="st0" d="M72.09,137.12c0.2-0.06,0.41-0.12,0.61-0.18C72.5,137.01,72.3,137.07,72.09,137.12L72.09,137.12z"/>
	<path class="st0" d="M75.61,130.81c0.2-0.06,0.41-0.12,0.61-0.17C76.02,130.7,75.81,130.76,75.61,130.81L75.61,130.81z"/>
	<path class="st0" d="M72.09,137.12c-0.2,0.06-0.41,0.12-0.61,0.18C71.68,137.23,71.89,137.17,72.09,137.12L72.09,137.12z"/>
	<path class="st0" d="M71.48,137.3c-0.13-0.01-0.25-0.02-0.38-0.03c0.02,0.08,0.04,0.16,0.07,0.23c0.1-0.07,0.21-0.15,0.31-0.22
		L71.48,137.3z"/>
	<path class="st0" d="M74.6,130.78c-0.13-0.01-0.25-0.02-0.38-0.03c0.02,0.08,0.05,0.16,0.07,0.24c0.1-0.08,0.21-0.15,0.31-0.23
		L74.6,130.78z"/>
	<path class="st0" d="M69.86,137.42c0.13,0.01,0.25,0.02,0.38,0.03c-0.02-0.08-0.05-0.16-0.07-0.24c-0.1,0.07-0.21,0.15-0.31,0.22
		L69.86,137.42z"/>
	<path class="st0" d="M69.86,137.43c-0.2,0.06-0.41,0.12-0.61,0.17c0.2-0.07,0.41-0.13,0.61-0.18L69.86,137.43z"/>
	<path class="st0" d="M72.76,131.29c0.12,0.01,0.25,0.03,0.37,0.04c-0.05-0.14-0.11-0.29-0.16-0.43
		C72.91,131.03,72.83,131.16,72.76,131.29C72.76,131.3,72.76,131.29,72.76,131.29z"/>
	<path class="st0" d="M69.24,137.6c-0.13-0.01-0.26-0.02-0.38-0.03c0.02,0.08,0.05,0.16,0.07,0.24
		C69.03,137.74,69.14,137.67,69.24,137.6L69.24,137.6z"/>
	<path class="st0" d="M72.14,131.46c0.2-0.06,0.41-0.11,0.61-0.17c-0.2,0.07-0.41,0.13-0.61,0.18L72.14,131.46z"/>
	<path class="st0" d="M72.97,130.9c0.01-0.13,0.02-0.25,0.02-0.38c-0.08,0.02-0.16,0.04-0.24,0.07c0.07,0.1,0.15,0.21,0.22,0.31
		L72.97,130.9z"/>
	<path class="st0" d="M71.53,131.64c0.2-0.06,0.41-0.12,0.61-0.17c-0.2,0.07-0.41,0.13-0.61,0.19L71.53,131.64z"/>
	<path class="st0" d="M71.53,131.65c-0.13-0.01-0.25-0.02-0.38-0.03c0.02,0.08,0.04,0.16,0.07,0.24c0.1-0.07,0.21-0.15,0.31-0.22
		L71.53,131.65z"/>
	<path class="st0" d="M71.58,130.63c0.13,0.01,0.25,0.02,0.38,0.03c-0.02-0.08-0.04-0.16-0.07-0.24c-0.1,0.07-0.21,0.15-0.31,0.22
		L71.58,130.63z"/>
	<path class="st0" d="M71.58,130.64c-0.2,0.06-0.41,0.12-0.61,0.17c0.2-0.07,0.41-0.13,0.61-0.19L71.58,130.64z"/>
	<path class="st0" d="M70.96,130.81c-0.13-0.01-0.25-0.02-0.38-0.03c0.02,0.08,0.05,0.16,0.07,0.24
		C70.75,130.95,70.86,130.88,70.96,130.81L70.96,130.81z"/>
	<path class="st0" d="M69.3,131.95c-0.2,0.06-0.41,0.12-0.61,0.18C68.89,132.06,69.09,132,69.3,131.95L69.3,131.95z"/>
	<path class="st0" d="M69.34,130.93c0.13,0.01,0.25,0.02,0.38,0.03c-0.02-0.08-0.04-0.16-0.07-0.24
		C69.55,130.8,69.45,130.87,69.34,130.93L69.34,130.93z"/>
	<path class="st0" d="M67.91,130.48c0.02-0.04,0.05-0.08,0.07-0.12c-0.09-0.02-0.18-0.04-0.27-0.06c0.02,0.06,0.03,0.13,0.07,0.18
		C67.79,130.49,67.86,130.47,67.91,130.48z"/>
	<path class="st0" d="M45.87,168.09c-0.04-0.02-0.08-0.05-0.12-0.07c-0.02,0.09-0.04,0.19-0.07,0.28c0.06-0.02,0.13-0.03,0.18-0.07
		C45.88,168.21,45.86,168.13,45.87,168.09z"/>
	<path class="st0" d="M40.46,175.92c-0.04-0.02-0.08-0.05-0.12-0.07c-0.02,0.09-0.04,0.19-0.07,0.28c0.06-0.02,0.13-0.03,0.18-0.07
		C40.48,176.04,40.46,175.97,40.46,175.92z"/>
	<path class="st0" d="M40.85,175.31c0.02-0.04,0.05-0.09,0.07-0.13c-0.09-0.02-0.19-0.04-0.28-0.06c0.02,0.06,0.03,0.14,0.07,0.18
		C40.73,175.32,40.8,175.3,40.85,175.31z"/>
	<path class="st0" d="M65.8,128.96c0.12,0.01,0.25,0.02,0.37,0.04c-0.05-0.14-0.1-0.29-0.15-0.43
		C65.94,128.7,65.86,128.83,65.8,128.96L65.8,128.96z"/>
	<path class="st0" d="M44.27,167.58c-0.15,0.03-0.3,0.06-0.44,0.09c0.07,0.1,0.15,0.2,0.22,0.3
		C44.12,167.84,44.19,167.7,44.27,167.58C44.27,167.57,44.27,167.58,44.27,167.58z"/>
	<path class="st0" d="M60.23,131.54c-0.13-0.01-0.26-0.02-0.38-0.03c0.02,0.08,0.05,0.16,0.07,0.24
		C60.02,131.68,60.12,131.61,60.23,131.54L60.23,131.54z"/>
	<path class="st0" d="M69.47,105.7c0.12,0.01,0.24,0.02,0.37,0.04c-0.05-0.14-0.1-0.28-0.15-0.43
		C69.62,105.44,69.54,105.57,69.47,105.7L69.47,105.7z"/>
	<path class="st0" d="M92.23,62.1c-0.13-0.01-0.25-0.02-0.38-0.02c0.02,0.08,0.04,0.16,0.07,0.24c0.1-0.07,0.2-0.15,0.31-0.22
		L92.23,62.1z"/>
	<path class="st0" d="M57.58,122.14c0.02-0.04,0.05-0.09,0.07-0.13c-0.09-0.02-0.19-0.04-0.28-0.06c0.02,0.06,0.03,0.13,0.07,0.18
		C57.46,122.15,57.54,122.14,57.58,122.14z"/>
	<path class="st0" d="M70.36,99.48c0.01-0.13,0.01-0.26,0.02-0.39c-0.09,0.02-0.17,0.05-0.26,0.07c0.07,0.11,0.15,0.22,0.22,0.32
		L70.36,99.48z"/>
	<path class="st0" d="M46.72,139.6c-0.05,0-0.1,0-0.15,0c0.01,0.08,0.02,0.17,0.03,0.25c0.06-0.02,0.12-0.04,0.19-0.06
		C46.76,139.73,46.74,139.67,46.72,139.6z"/>
	<path class="st0" d="M95.14,46.67c0.15-0.03,0.3-0.06,0.45-0.09c-0.07-0.1-0.15-0.2-0.22-0.3c-0.08,0.13-0.15,0.27-0.22,0.4
		L95.14,46.67z"/>
	<path class="st0" d="M66.98,84.82c-0.04-0.02-0.08-0.04-0.12-0.06c-0.02,0.09-0.04,0.18-0.06,0.27c0.06-0.02,0.13-0.03,0.18-0.07
		C66.99,84.94,66.98,84.87,66.98,84.82z"/>
	<path class="st0" d="M6.01,191.7c-0.01,0.13-0.01,0.26-0.02,0.39c0.09-0.02,0.17-0.05,0.26-0.07c-0.07-0.11-0.15-0.21-0.22-0.32
		L6.01,191.7z"/>
	<path class="st0" d="M72.9,69.91c-0.13-0.01-0.25-0.02-0.38-0.02c0.02,0.08,0.05,0.16,0.07,0.24
		C72.69,70.05,72.79,69.98,72.9,69.91L72.9,69.91z"/>
	<path class="st0" d="M74.56,65.12c-0.06-0.2-0.13-0.41-0.19-0.61l-0.04,0.01c-0.08,0.12-0.14,0.25-0.2,0.38
		c0.12,0.1,0.24,0.17,0.36,0.24L74.56,65.12z"/>
	<path class="st0" d="M71.63,57.33c0.06,0.2,0.12,0.41,0.19,0.61c-0.04-0.21-0.1-0.41-0.15-0.62L71.63,57.33z"/>
	<path class="st0" d="M1.51,179.6c0,0.05,0,0.1-0.01,0.15c0.08-0.01,0.17-0.02,0.25-0.03c-0.02-0.06-0.04-0.13-0.06-0.19
		C1.63,179.55,1.57,179.58,1.51,179.6z"/>
	<path class="st0" d="M71.38,54.09c0.06,0.2,0.12,0.41,0.18,0.61c-0.04-0.21-0.1-0.41-0.16-0.62L71.38,54.09z"/>
	<path class="st0" d="M81.48,13.74c0.13,0.01,0.25,0.02,0.38,0.02c-0.02-0.08-0.05-0.15-0.07-0.23c-0.1,0.07-0.2,0.15-0.3,0.22
		L81.48,13.74z"/>
	<path class="st0" d="M84.26,1.35c-0.01,0.13-0.02,0.26-0.02,0.38c0.08-0.02,0.16-0.05,0.24-0.07C84.41,1.56,84.33,1.46,84.26,1.35
		L84.26,1.35z"/>
	<path class="st0" d="M77.48,138.57c-0.41,0.11-0.82,0.23-1.23,0.34C76.81,139.34,77.22,139.22,77.48,138.57L77.48,138.57z"/>
	<path class="st0" d="M60.17,141.83c-0.08,0.13-0.15,0.26-0.23,0.4c0.33,0.14,0.66,0.53,1.02,0.04
		C60.7,142.13,60.43,141.98,60.17,141.83z"/>
	<path class="st0" d="M80.06,139.5c0.13,0.07,0.27,0.15,0.4,0.22c0.01-0.12,0.02-0.25,0.03-0.37
		C80.35,139.4,80.2,139.45,80.06,139.5z"/>
	<path class="st0" d="M79.84,139.9c0.07-0.13,0.15-0.27,0.22-0.4c-0.21,0.06-0.41,0.12-0.62,0.18
		C79.58,139.74,79.71,139.82,79.84,139.9z"/>
	<path class="st0" d="M79.45,139.68c-0.2,0.06-0.41,0.12-0.61,0.18C79.04,139.78,79.24,139.73,79.45,139.68L79.45,139.68z"/>
	<path class="st0" d="M78.84,139.85c-0.13-0.01-0.25-0.02-0.38-0.03c0.02,0.08,0.04,0.16,0.07,0.23c0.1-0.07,0.21-0.15,0.31-0.22
		L78.84,139.85z"/>
	<path class="st0" d="M79.31,138.05c-0.2,0.06-0.4,0.11-0.6,0.17C78.91,138.17,79.11,138.11,79.31,138.05z"/>
	<path class="st0" d="M78.7,138.23c-0.13-0.08-0.26-0.15-0.39-0.23l-0.12,0.19l-0.11,0.19l0.01,0.03
		C78.3,138.35,78.5,138.29,78.7,138.23z"/>
	<path class="st0" d="M77.48,138.58c0.21-0.05,0.41-0.11,0.62-0.16l-0.01-0.03C77.88,138.45,77.68,138.51,77.48,138.58L77.48,138.58
		z"/>
	<path class="st0" d="M75.64,139.1c0.21-0.05,0.41-0.11,0.62-0.16C76.05,138.98,75.84,139.04,75.64,139.1L75.64,139.1z"/>
	<path class="st0" d="M75.64,139.1c-0.2,0.06-0.41,0.12-0.61,0.18C75.23,139.21,75.43,139.15,75.64,139.1L75.64,139.1z"/>
	<path class="st0" d="M75.03,139.28c-0.13-0.01-0.26-0.02-0.39-0.03c0.02,0.08,0.05,0.16,0.07,0.25
		C74.81,139.42,74.92,139.34,75.03,139.28L75.03,139.28z"/>
	<path class="st0" d="M62.8,141.75c-0.21,0.06-0.42,0.12-0.62,0.18C62.39,141.87,62.59,141.81,62.8,141.75z"/>
	<path class="st0" d="M62.19,141.92c-0.21,0.06-0.42,0.12-0.63,0.18C61.77,142.04,61.98,141.98,62.19,141.92z"/>
	<path class="st0" d="M61.58,142.1c-0.21,0.06-0.42,0.12-0.63,0.18C61.16,142.22,61.37,142.16,61.58,142.1z"/>
	<path class="st0" d="M59.55,142c-0.07,0.13-0.15,0.27-0.22,0.4c0.21-0.06,0.42-0.12,0.63-0.18C59.82,142.15,59.69,142.08,59.55,142
		z"/>
	<path class="st0" d="M58.94,142.18c-0.07,0.13-0.15,0.27-0.22,0.4c0.21-0.06,0.42-0.12,0.62-0.18
		C59.21,142.33,59.07,142.25,58.94,142.18z"/>
	<path class="st0" d="M58.32,142.35c-0.07,0.13-0.15,0.27-0.22,0.4c0.21-0.06,0.41-0.12,0.62-0.18
		C58.59,142.5,58.46,142.43,58.32,142.35z"/>
	<path class="st0" d="M79.54,137.66c0.07-0.13,0.15-0.27,0.22-0.4c-0.12-0.01-0.25-0.02-0.37-0.03
		C79.44,137.37,79.49,137.52,79.54,137.66z"/>
	<path class="st0" d="M70.05,38.88c0.01-0.13,0.02-0.25,0.02-0.38c-0.08,0.02-0.16,0.04-0.23,0.07
		C69.91,38.67,69.98,38.78,70.05,38.88L70.05,38.88z"/>
	<path class="st0" d="M68.59,48.92c-0.13-0.01-0.25-0.02-0.38-0.03c0.02,0.08,0.04,0.16,0.07,0.23c0.1-0.07,0.21-0.15,0.31-0.22
		L68.59,48.92z"/>
	<path class="st0" d="M65.92,50c0.11,0.1,0.24,0.17,0.38,0.2c0.02-0.13,0.04-0.25,0.06-0.38C66.21,49.89,66.07,49.94,65.92,50z"/>
	<path class="st0" d="M79.81,46.38c0.13,0.01,0.25,0.02,0.38,0.03c-0.02-0.08-0.05-0.16-0.07-0.24c-0.1,0.07-0.21,0.15-0.31,0.22
		L79.81,46.38z"/>
	<path class="st0" d="M79.81,46.39c-0.13-0.01-0.25-0.02-0.38-0.03c0.02,0.08,0.04,0.16,0.07,0.24c0.1-0.07,0.21-0.15,0.31-0.22
		L79.81,46.39z"/>
	<path class="st0" d="M76.04,49.45c0.07-0.13,0.15-0.27,0.22-0.4c-0.13-0.08-0.27-0.15-0.4-0.23
		C75.92,49.04,75.98,49.24,76.04,49.45z"/>
	<path class="st0" d="M104.23,118.37c0.13,0.07,0.27,0.15,0.4,0.22c0.07-0.13,0.15-0.27,0.22-0.4
		C104.65,118.25,104.44,118.31,104.23,118.37z"/>
</g>
</svg>
